ply
format ascii 1.0
element vertex 1000
property float x
property float y
property float z
property uchar red
property uchar green
property uchar blue
end_header
-11.1296 39.1139 0 0 0 255
-22.6428 -21.7811 0 0 0 255
8.39591 -33.6726 0 0 0 255
29.7856 -15.2059 0 0 0 255
-25.4031 31.3207 0 0 0 255
5.0871 45.8999 0 0 0 255
-36.3453 36.4803 0 0 0 255
-5.15502 44.6213 0 0 0 255
5.99719 22.5048 0 0 0 255
4.06164 -25.4845 0 0 0 255
31.2484 -18.7411 0 0 0 255
20.3569 45.4663 0 0 0 255
-24.733 -48.0134 0 0 0 255
-32.1131 47.5462 0 0 0 255
23.0537 46.4889 0 0 0 255
-8.26188 6.31739 0 0 0 255
8.73745 -45.8087 0 0 0 255
-0.109544 -39.5099 0 0 0 255
-0.833025 -10.2792 0 0 0 255
-3.91288 43.5985 0 0 0 255
-22.1325 11.9573 0 0 0 255
-11.7831 30.3974 0 0 0 255
-15.6312 27.1479 0 0 0 255
32.7302 32.321 0 0 0 255
23.1053 -19.6003 0 0 0 255
-46.8466 25.3629 0 0 0 255
-40.3944 -33.0732 0 0 0 255
-2.15817 -6.36992 0 0 0 255
-44.545 4.94419 0 0 0 255
-13.2409 -14.6558 0 0 0 255
-2.62965 15.1421 0 0 0 255
26.9212 -48.3885 0 0 0 255
0.736931 7.39797 0 0 0 255
18.7213 -6.31687 0 0 0 255
-27.7127 -41.9885 0 0 0 255
40.0902 -6.30324 0 0 0 255
-8.73019 26.3178 0 0 0 255
22.2026 -11.2458 0 0 0 255
-1.95103 -20.0632 0 0 0 255
23.6772 42.623 0 0 0 255
18.5707 5.43941 0 0 0 255
-19.7729 -32.4819 0 0 0 255
-44.9596 -44.2774 0 0 0 255
38.093 -29.3989 0 0 0 255
8.13151 41.7575 0 0 0 255
43.5296 -22.2439 0 0 0 255
-32.7762 39.6984 0 0 0 255
8.44329 36.1146 0 0 0 255
23.5793 14.0478 0 0 0 255
39.2242 -14.6843 0 0 0 255
-5.27277 -10.4799 0 0 0 255
-28.8126 -43.8196 0 0 0 255
46.513 -22.1598 0 0 0 255
-45.0055 27.9535 0 0 0 255
43.3676 -17.9755 0 0 0 255
-21.861 -24.1062 0 0 0 255
0.155643 -13.2283 0 0 0 255
-26.6997 -22.7 0 0 0 255
-13.1512 12.3426 0 0 0 255
35.2732 -34.6227 0 0 0 255
14.2081 21.9643 0 0 0 255
49.1071 -7.55803 0 0 0 255
-49.6371 -17.7827 0 0 0 255
13.2553 -5.47074 0 0 0 255
12.9261 -7.75216 0 0 0 255
1.1688 9.18526 0 0 0 255
15.7998 -33.9406 0 0 0 255
23.7782 30.5036 0 0 0 255
-24.2433 -32.6434 0 0 0 255
-49.4873 -20.2866 0 0 0 255
-36.5095 -24.9939 0 0 0 255
-1.92326 -27.7685 0 0 0 255
-21.5238 -36.0391 0 0 0 255
-23.0247 -45.7649 0 0 0 255
31.8714 31.6813 0 0 0 255
18.1125 38.6734 0 0 0 255
-42.755 26.7025 0 0 0 255
-29.7436 -5.13129 0 0 0 255
32.5765 34.5717 0 0 0 255
8.33456 12.5049 0 0 0 255
-10.7896 -39.9373 0 0 0 255
17.6784 -29.97 0 0 0 255
-41.2595 -32.601 0 0 0 255
-17.526 44.3267 0 0 0 255
11.0526 -45.6278 0 0 0 255
1.30482 -40.4482 0 0 0 255
8.11685 10.4838 0 0 0 255
-15.9513 2.12568 0 0 0 255
31.9993 -24.5181 0 0 0 255
-12.1707 -47.6855 0 0 0 255
30.7561 -3.22274 0 0 0 255
1.69445 31.3394 0 0 0 255
-45.2302 -2.9236 0 0 0 255
34.1737 -44.9213 0 0 0 255
-5.04727 44.888 0 0 0 255
27.6566 -22.8585 0 0 0 255
-45.6358 23.309 0 0 0 255
39.4759 -27.2644 0 0 0 255
-1.87928 -48.978 0 0 0 255
25.4997 -46.5047 0 0 0 255
-29.0066 -24.5888 0 0 0 255
27.1585 -43.8875 0 0 0 255
-2.05926 40.7526 0 0 0 255
11.156 36.7897 0 0 0 255
24.989 47.4593 0 0 0 255
-3.07003 42.0489 0 0 0 255
43.0262 -29.0031 0 0 0 255
5.88103 29.176 0 0 0 255
7.59825 -47.7855 0 0 0 255
-47.5797 -15.9185 0 0 0 255
42.7531 8.29471 0 0 0 255
-8.75064 34.0475 0 0 0 255
24.9484 13.707 0 0 0 255
-11.8617 -5.93007 0 0 0 255
48.8494 21.6998 0 0 0 255
-25.8008 -1.97826 0 0 0 255
42.4184 35.2822 0 0 0 255
12.0174 33.0395 0 0 0 255
-44.2987 -0.783167 0 0 0 255
-34.6506 -18.6704 0 0 0 255
-34.9759 26.649 0 0 0 255
46.6701 38.1078 0 0 0 255
18.8285 43.0611 0 0 0 255
32.6093 -49.4529 0 0 0 255
-30.9875 -33.0732 0 0 0 255
31.8821 -33.6478 0 0 0 255
-38.3043 8.83412 0 0 0 255
-7.87602 24.2451 0 0 0 255
29.9581 39.0706 0 0 0 255
-33.4303 -45.5543 0 0 0 255
31.7288 -32.7044 0 0 0 255
8.38037 -10.6708 0 0 0 255
41.0898 -21.4312 0 0 0 255
1.7122 -34.71 0 0 0 255
-42.0772 -20.9347 0 0 0 255
-34.3047 38.0753 0 0 0 255
-48.5669 -25.5495 0 0 0 255
26.2752 -25.7366 0 0 0 255
-20.8585 48.3088 0 0 0 255
0.381129 45.7713 0 0 0 255
-15.4286 -22.4473 0 0 0 255
-1.71272 44.774 0 0 0 255
-2.06319 -29.943 0 0 0 255
-2.75353 3.89582 0 0 0 255
-27.7984 -18.5335 0 0 0 255
11.5938 -33.5125 0 0 0 255
-23.1171 34.4103 0 0 0 255
2.60581 -32.7298 0 0 0 255
0.959837 -0.177164 0 0 0 255
48.8511 15.5824 0 0 0 255
-34.9457 13.8435 0 0 0 255
-29.9632 -48.661 0 0 0 255
34.2565 34.124 0 0 0 255
12.0376 21.925 0 0 0 255
-22.3849 -12.7786 0 0 0 255
-47.071 2.56281 0 0 0 255
39.6371 -34.3235 0 0 0 255
46.4089 -27.7321 0 0 0 255
-30.2955 35.9891 0 0 0 255
26.6334 27.0175 0 0 0 255
16.9151 22.7539 0 0 0 255
-30.9929 13.5882 0 0 0 255
-0.243883 18.7584 0 0 0 255
-44.3117 -21.1103 0 0 0 255
-29.1739 42.2942 0 0 0 255
33.1564 -23.8665 0 0 0 255
-44.3186 -25.5012 0 0 0 255
13.7933 17.9408 0 0 0 255
-35.983 27.7322 0 0 0 255
18.5366 44.8559 0 0 0 255
30.9261 49.8318 0 0 0 255
5.12197 0.706332 0 0 0 255
-47.5468 -24.4801 0 0 0 255
27.9359 -3.57638 0 0 0 255
19.4707 9.79876 0 0 0 255
-21.7012 20.8575 0 0 0 255
31.4675 -28.6213 0 0 0 255
49.4312 -6.12507 0 0 0 255
-49.7009 -35.3489 0 0 0 255
-33.1429 28.3043 0 0 0 255
-35.5063 -31.1946 0 0 0 255
43.673 -42.2107 0 0 0 255
-3.65429 31.2552 0 0 0 255
-22.5561 -4.32565 0 0 0 255
35.916 33.8482 0 0 0 255
-11.54 -35.5394 0 0 0 255
-16.8344 -10.0659 0 0 0 255
30.0774 -0.249696 0 0 0 255
36.1236 16.899 0 0 0 255
4.08782 13.4306 0 0 0 255
-1.96571 9.16735 0 0 0 255
-14.222 -15.0199 0 0 0 255
43.3231 -18.3067 0 0 0 255
28.6151 -8.15375 0 0 0 255
-20.775 -49.613 0 0 0 255
-37.2345 -24.7651 0 0 0 255
-21.4996 42.0293 0 0 0 255
48.0538 21.1707 0 0 0 255
-7.6922 -2.50398 0 0 0 255
-28.9444 28.8777 0 0 0 255
-27.8959 -38.3558 0 0 0 255
37.8011 -26.1276 0 0 0 255
2.26036 -14.7127 0 0 0 255
35.193 3.28209 0 0 0 255
-25.8988 29.5003 0 0 0 255
7.10124 31.9372 0 0 0 255
0.411824 -17.309 0 0 0 255
-12.2777 44.5502 0 0 0 255
20.1697 15.9878 0 0 0 255
11.1095 49.495 0 0 0 255
-14.0195 42.9268 0 0 0 255
-8.08059 -27.6847 0 0 0 255
14.8859 -27.3589 0 0 0 255
-43.0551 4.46716 0 0 0 255
-17.8716 -28.6191 0 0 0 255
17.9733 -17.0979 0 0 0 255
-31.5923 -11.9663 0 0 0 255
-4.37775 27.3841 0 0 0 255
44.419 -48.9581 0 0 0 255
35.6908 -14.1558 0 0 0 255
17.2152 -37.9311 0 0 0 255
-21.7752 -28.4826 0 0 0 255
-48.3984 15.5138 0 0 0 255
-47.3509 -38.6575 0 0 0 255
29.1375 2.44577 0 0 0 255
5.81403 6.9183 0 0 0 255
-31.3194 -1.12869 0 0 0 255
18.4672 47.368 0 0 0 255
34.0851 -38.3761 0 0 0 255
24 27.407 0 0 0 255
-31.6085 -16.7427 0 0 0 255
13.0824 11.0984 0 0 0 255
6.91819 -25.197 0 0 0 255
-49.9074 38.9618 0 0 0 255
-4.02453 -6.72132 0 0 0 255
36.5433 5.51064 0 0 0 255
-46.7706 -10.5838 0 0 0 255
-24.325 14.9888 0 0 0 255
33.6673 -40.9253 0 0 0 255
9.23859 -30.5114 0 0 0 255
2.66542 -14.8571 0 0 0 255
-23.457 6.7892 0 0 0 255
40.3757 -27.6287 0 0 0 255
-11.6669 38.3722 0 0 0 255
-30.5036 29.2581 0 0 0 255
-3.49714 -37.8441 0 0 0 255
-11.3955 40.5376 0 0 0 255
-44.1696 10.3358 0 0 0 255
1.4407 39.0599 0 0 0 255
14.3312 24.5482 0 0 0 255
20.6048 -40.6276 0 0 0 255
-10.4291 -31.5854 0 0 0 255
-9.59692 27.624 0 0 0 255
14.3999 29.4805 0 0 0 255
-28.2867 -45.2481 0 0 0 255
-0.247907 -36.0369 0 0 0 255
34.328 -41.5659 0 0 0 255
-21.1489 -21.4668 0 0 0 255
21.336 -23.7033 0 0 0 255
-37.1495 40.6151 0 0 0 255
9.70279 -21.2576 0 0 0 255
-12.5197 -12.3067 0 0 0 255
27.7292 -5.21372 0 0 0 255
5.70865 23.5327 0 0 0 255
42.3524 -3.84165 0 0 0 255
3.38991 -10.0937 0 0 0 255
24.1253 -13.1255 0 0 0 255
-27.3001 -6.698 0 0 0 255
38.2002 -43.9818 0 0 0 255
43.0358 7.62524 0 0 0 255
4.06114 3.40024 0 0 0 255
12.3952 22.9581 0 0 0 255
-19.4068 29.797 0 0 0 255
0.736705 27.4178 0 0 0 255
31.2972 -8.0651 0 0 0 255
-27.511 23.3869 0 0 0 255
-4.03326 -22.1778 0 0 0 255
45.0958 -18.0799 0 0 0 255
10.1382 42.5069 0 0 0 255
33.7379 -18.2206 0 0 0 255
-42.5061 -16.4822 0 0 0 255
-14.5558 18.6999 0 0 0 255
27.0995 49.4577 0 0 0 255
-45.6889 43.2634 0 0 0 255
5.81491 16.1876 0 0 0 255
-13.4158 -28.7502 0 0 0 255
-25.2009 -36.931 0 0 0 255
-21.8785 19.6806 0 0 0 255
49.9543 36.1786 0 0 0 255
45.9567 43.7883 0 0 0 255
6.74411 13.7655 0 0 0 255
47.9864 8.71635 0 0 0 255
-35.2619 -4.66924 0 0 0 255
19.0215 0.121553 0 0 0 255
-9.66407 18.0351 0 0 0 255
2.97156 -19.5002 0 0 0 255
-16.7997 19.5651 0 0 0 255
14.7248 -24.0034 0 0 0 255
25.3592 -17.7081 0 0 0 255
48.2535 -40.5574 0 0 0 255
-42.0729 4.64738 0 0 0 255
44.6626 -32.7467 0 0 0 255
-18.9604 10.1051 0 0 0 255
10.5427 22.5422 0 0 0 255
1.01213 38.2793 0 0 0 255
20.3107 41.0173 0 0 0 255
39.824 2.38689 0 0 0 255
26.1958 6.00655 0 0 0 255
35.7775 19.6504 0 0 0 255
14.8369 43.2368 0 0 0 255
-16.2055 -33.7634 0 0 0 255
-13.186 13.1043 0 0 0 255
21.559 2.41165 0 0 0 255
-36.2291 27.5319 0 0 0 255
16.0126 -19.7548 0 0 0 255
-47.1585 -44.5792 0 0 0 255
38.7448 45.2977 0 0 0 255
-43.6587 9.50575 0 0 0 255
8.79333 -3.93361 0 0 0 255
-33.8518 37.7576 0 0 0 255
8.72957 -9.71926 0 0 0 255
-7.72733 -1.84261 0 0 0 255
-18.2796 5.92634 0 0 0 255
25.9316 14.085 0 0 0 255
-44.9348 20.9255 0 0 0 255
-9.96895 -29.082 0 0 0 255
39.7392 10.2801 0 0 0 255
19.6852 -48.3709 0 0 0 255
-2.49659 48.2517 0 0 0 255
21.6996 -46.4708 0 0 0 255
39.1375 1.5877 0 0 0 255
25.6703 -7.67023 0 0 0 255
-24.2253 -14.4553 0 0 0 255
24.4096 14.5627 0 0 0 255
-20.3459 -27.7422 0 0 0 255
-18.2661 -47.9298 0 0 0 255
0.111056 1.4023 0 0 0 255
-26.4512 -2.03994 0 0 0 255
4.84626 -10.8123 0 0 0 255
40.9475 27.2808 0 0 0 255
-43.6636 29.8724 0 0 0 255
-14.9246 29.3607 0 0 0 255
-27.4836 -15.9221 0 0 0 255
-42.682 36.5399 0 0 0 255
-34.736 22.0177 0 0 0 255
-32.102 12.848 0 0 0 255
-23.5159 -44.7853 0 0 0 255
6.60556 44.4343 0 0 0 255
29.8441 -1.04085 0 0 0 255
7.29166 -20.3574 0 0 0 255
-1.14072 -37.2438 0 0 0 255
36.3912 10.4873 0 0 0 255
-42.8006 -10.8542 0 0 0 255
11.17 -31.2176 0 0 0 255
-17.8311 8.19242 0 0 0 255
-12.2915 -42.6663 0 0 0 255
-3.86127 42.4273 0 0 0 255
1.31357 -31.9424 0 0 0 255
4.21971 11.401 0 0 0 255
-39.4068 -28.5563 0 0 0 255
-29.9923 26.1479 0 0 0 255
-18.2894 43.497 0 0 0 255
-4.91773 5.24717 0 0 0 255
25.1566 -28.8956 0 0 0 255
-12.3209 9.41656 0 0 0 255
18.8542 -42.6926 0 0 0 255
-45.6949 24.8404 0 0 0 255
1.23953 27.8923 0 0 0 255
-39.6653 45.9055 0 0 0 255
-48.8817 -30.0378 0 0 0 255
-5.00308 -11.25 0 0 0 255
46.9916 -17.3025 0 0 0 255
20.4756 -23.3182 0 0 0 255
-36.6242 -26.8018 0 0 0 255
-11.4611 32.7578 0 0 0 255
-38.9487 12.8937 0 0 0 255
-21.3038 49.8834 0 0 0 255
-36.1707 17.2161 0 0 0 255
-45.2792 -29.7565 0 0 0 255
-43.2582 36.779 0 0 0 255
-2.60917 15.5269 0 0 0 255
1.07303 -42.333 0 0 0 255
-7.87992 -33.7315 0 0 0 255
31.3484 40.532 0 0 0 255
-42.91 16.5429 0 0 0 255
-5.14605 -29.1863 0 0 0 255
-42.1285 27.0273 0 0 0 255
24.2455 49.9073 0 0 0 255
5.6363 21.7852 0 0 0 255
36.7082 19.3846 0 0 0 255
47.9704 -15.5232 0 0 0 255
16.4939 19.9643 0 0 0 255
-10.1519 -7.06824 0 0 0 255
3.38618 -1.46922 0 0 0 255
28.2985 -32.4162 0 0 0 255
2.09072 -9.8559 0 0 0 255
16.9431 40.3273 0 0 0 255
-49.5727 46.6933 0 0 0 255
11.1071 -8.67123 0 0 0 255
2.15971 28.8354 0 0 0 255
20.4889 33.3736 0 0 0 255
46.8785 46.1559 0 0 0 255
40.7927 -4.77548 0 0 0 255
-17.1958 -7.89557 0 0 0 255
-33.6003 -21.563 0 0 0 255
17.9374 13.8431 0 0 0 255
-25.7531 -6.30256 0 0 0 255
44.364 34.4554 0 0 0 255
49.3432 -43.9645 0 0 0 255
-4.60798 -35.7514 0 0 0 255
-25.2419 34.1151 0 0 0 255
-47.4663 48.3166 0 0 0 255
-12.3537 -46.5051 0 0 0 255
2.20557 19.6643 0 0 0 255
-14.4725 46.2004 0 0 0 255
-26.9036 33.9637 0 0 0 255
-26.6484 16.4783 0 0 0 255
2.85646 11.8684 0 0 0 255
-21.0478 -10.7727 0 0 0 255
-21.2566 -31.9875 0 0 0 255
10.7763 -30.7268 0 0 0 255
44.5461 -28.9567 0 0 0 255
21.4476 20.9515 0 0 0 255
6.6894 -15.6463 0 0 0 255
-22.9801 6.59014 0 0 0 255
-22.8393 47.8168 0 0 0 255
-34.3036 35.3889 0 0 0 255
45.8483 49.5927 0 0 0 255
-33.99 -28.9707 0 0 0 255
-19.7199 27.7907 0 0 0 255
-44.413 6.26795 0 0 0 255
30.6843 7.32676 0 0 0 255
-19.077 26.0603 0 0 0 255
-33.7717 17.5611 0 0 0 255
45.2931 -22.0053 0 0 0 255
-33.8672 -19.3456 0 0 0 255
-30.5455 41.6885 0 0 0 255
22.2838 44.2185 0 0 0 255
-36.4898 32.341 0 0 0 255
-38.7976 16.597 0 0 0 255
39.0425 -12.7021 0 0 0 255
-41.5979 23.566 0 0 0 255
26.1772 -30.1938 0 0 0 255
-8.28782 20.6056 0 0 0 255
-33.7428 -19.626 0 0 0 255
37.5525 24.1613 0 0 0 255
-7.30244 -36.9037 0 0 0 255
14.1753 29.9159 0 0 0 255
-17.6066 46.1609 0 0 0 255
2.38928 -38.7603 0 0 0 255
4.6815 -48.2503 0 0 0 255
-45.6884 -10.0176 0 0 0 255
-40.6846 -37.5176 0 0 0 255
-29.2925 -42.8939 0 0 0 255
35.2325 -14.2647 0 0 0 255
-21.4752 8.47055 0 0 0 255
-43.1103 40.4485 0 0 0 255
38.2794 -11.8487 0 0 0 255
-16.8162 16.634 0 0 0 255
23.7647 47.8356 0 0 0 255
8.61921 -10.8264 0 0 0 255
-22.0264 -41.6778 0 0 0 255
15.8152 -31.2418 0 0 0 255
-30.4778 11.3568 0 0 0 255
-21.9825 -40.6621 0 0 0 255
22.2148 21.5838 0 0 0 255
9.6432 19.688 0 0 0 255
45.8777 -32.4669 0 0 0 255
9.09032 27.7526 0 0 0 255
38.2092 33.7466 0 0 0 255
25.4507 37.714 0 0 0 255
15.0964 -37.0581 0 0 0 255
-39.3272 35.8062 0 0 0 255
32.1215 -30.4027 0 0 0 255
20.9071 -10.7017 0 0 0 255
-9.9379 39.7887 0 0 0 255
-8.5799 -7.86738 0 0 0 255
-43.2041 6.99669 0 0 0 255
32.1694 40.2639 0 0 0 255
29.1201 29.325 0 0 0 255
38.6397 3.50707 0 0 0 255
-14.0873 15.8824 0 0 0 255
-42.806 -1.68978 0 0 0 255
2.48586 6.26773 0 0 0 255
-36.1422 -34.2324 0 0 0 255
1.07063 -5.8515 0 0 0 255
25.0731 25.3793 0 0 0 255
32.8758 -15.2093 0 0 0 255
22.5048 -24.7257 0 0 0 255
-8.11562 -29.5789 0 0 0 255
-23.1807 43.4271 0 0 0 255
-25.476 -24.5657 0 0 0 255
-20.7906 -3.70718 0 0 0 255
-3.37683 23.1023 0 0 0 255
44.1979 -33.3766 0 0 0 255
-20.9676 36.7296 0 0 0 255
-35.1544 -0.351677 0 0 0 255
-20.9393 7.92242 0 0 0 255
7.30033 -28.2712 0 0 0 255
43.2139 17.377 0 0 0 255
-6.68669 6.50914 0 0 0 255
18.2182 37.8343 0 0 0 255
12.9672 1.23502 0 0 0 255
48.8402 1.2786 0 0 0 255
-10.8706 -5.83057 0 0 0 255
12.3513 -5.37247 0 0 0 255
-41.9601 -7.20032 0 0 0 255
30.231 -15.0974 0 0 0 255
-48.0992 2.06899 0 0 0 255
8.67338 19.6861 0 0 0 255
42.5449 14.1106 0 0 0 255
-27.698 21.9179 0 0 0 255
-41.8723 -36.0279 0 0 0 255
47.5575 -37.6038 0 0 0 255
45.7574 -12.4918 0 0 0 255
30.5472 0.133829 0 0 0 255
-49.9543 15.2178 0 0 0 255
39.3537 8.50643 0 0 0 255
-23.0848 18.1406 0 0 0 255
-5.6691 -26.4167 0 0 0 255
-37.3653 -42.6953 0 0 0 255
44.465 47.1857 0 0 0 255
-3.71677 20.1558 0 0 0 255
20.7563 3.31609 0 0 0 255
26.3105 22.3041 0 0 0 255
-23.1499 -29.0217 0 0 0 255
-3.10778 -21.2056 0 0 0 255
43.7512 24.9286 0 0 0 255
-13.6237 23.8564 0 0 0 255
37.8477 18.8717 0 0 0 255
-18.4932 -1.71612 0 0 0 255
-3.9688 -6.07819 0 0 0 255
48.971 39.5916 0 0 0 255
37.81 -46.8322 0 0 0 255
2.81936 -16.0847 0 0 0 255
-37.2756 28.7321 0 0 0 255
-39.5656 32.3586 0 0 0 255
-12.4391 48.9002 0 0 0 255
12.8695 9.51252 0 0 0 255
23.6977 21.5989 0 0 0 255
-40.1827 4.3038 0 0 0 255
-36.5587 -40.8096 0 0 0 255
1.35639 43.4375 0 0 0 255
-24.3731 -35.4671 0 0 0 255
35.983 1.57955 0 0 0 255
17.5404 -1.5656 0 0 0 255
-34.5596 -4.35536 0 0 0 255
41.1923 27.5803 0 0 0 255
21.7396 -14.258 0 0 0 255
-35.8314 -49.3512 0 0 0 255
18.2767 -39.8862 0 0 0 255
22.5598 -19.4348 0 0 0 255
24.0848 -8.86148 0 0 0 255
-0.334708 -5.89798 0 0 0 255
15.1371 -9.73419 0 0 0 255
-19.832 -16.0418 0 0 0 255
31.9169 -3.39409 0 0 0 255
28.0121 -32.0875 0 0 0 255
49.2604 -1.93241 0 0 0 255
3.11713 -44.1639 0 0 0 255
17.4809 -36.7806 0 0 0 255
42.3192 48.3195 0 0 0 255
-30.3351 -44.0649 0 0 0 255
13.812 -13.6452 0 0 0 255
-16.939 47.5493 0 0 0 255
25.1049 -38.357 0 0 0 255
26.2763 21.3582 0 0 0 255
34.8496 -14.8134 0 0 0 255
-28.8511 17.7284 0 0 0 255
-3.96921 -7.02945 0 0 0 255
6.05593 7.18111 0 0 0 255
-32.2231 0.962576 0 0 0 255
-28.257 37.0349 0 0 0 255
-35.8441 15.9137 0 0 0 255
-25.9966 -33.4466 0 0 0 255
46.9374 -32.9938 0 0 0 255
-4.46563 -28.6858 0 0 0 255
-12.9928 32.543 0 0 0 255
39.5722 14.3601 0 0 0 255
-11.8796 -24.6592 0 0 0 255
-24.9318 -38.6524 0 0 0 255
11.0107 13.7872 0 0 0 255
-46.1161 -17.1852 0 0 0 255
23.2615 42.1525 0 0 0 255
-46.6532 -48.3196 0 0 0 255
44.4676 -20.089 0 0 0 255
2.65524 -23.4516 0 0 0 255
-7.78451 1.83936 0 0 0 255
21.5175 -13.12 0 0 0 255
4.19496 -38.0423 0 0 0 255
-8.93783 29.2781 0 0 0 255
40.4027 -40.8683 0 0 0 255
2.50031 15.5975 0 0 0 255
-15.7524 -13.3194 0 0 0 255
7.8122 -27.3394 0 0 0 255
26.2541 -15.0825 0 0 0 255
26.3865 23.4038 0 0 0 255
-8.07446 32.7523 0 0 0 255
-41.0613 43.8985 0 0 0 255
9.74677 7.45468 0 0 0 255
5.93923 -6.74992 0 0 0 255
11.5903 -8.12107 0 0 0 255
-12.1132 13.6509 0 0 0 255
28.6109 12.8641 0 0 0 255
-15.6989 4.86158 0 0 0 255
46.6874 40.6297 0 0 0 255
-20.5007 33.0414 0 0 0 255
21.068 4.69271 0 0 0 255
-16.6485 13.9185 0 0 0 255
-11.8755 -47.5697 0 0 0 255
37.4511 -22.2562 0 0 0 255
21.8159 22.9467 0 0 0 255
-11.3762 29.4161 0 0 0 255
-28.6957 -48.363 0 0 0 255
-32.4173 -34.4334 0 0 0 255
-33.0699 35.952 0 0 0 255
-40.3117 44.5831 0 0 0 255
-5.40265 -38.2723 0 0 0 255
-2.55368 13.2012 0 0 0 255
-25.1106 -10.4105 0 0 0 255
4.0887 -0.91431 0 0 0 255
36.2326 9.3152 0 0 0 255
-11.9601 11.7032 0 0 0 255
4.3517 -19.0225 0 0 0 255
-45.9209 -12.4691 0 0 0 255
43.1583 43.4044 0 0 0 255
-25.3149 -17.8769 0 0 0 255
7.90633 -16.0814 0 0 0 255
-33.0375 -3.14995 0 0 0 255
-42.6444 18.4411 0 0 0 255
3.77253 -28.9334 0 0 0 255
41.1414 29.1618 0 0 0 255
41.3242 36.5493 0 0 0 255
-28.8261 34.8676 0 0 0 255
-31.7486 -9.9303 0 0 0 255
16.7299 46.1111 0 0 0 255
46.1294 -9.965 0 0 0 255
-49.5472 -47.8004 0 0 0 255
27.3871 -37.2066 0 0 0 255
-28.342 24.1292 0 0 0 255
6.27104 12.4973 0 0 0 255
47.3126 -26.8173 0 0 0 255
42.7125 -46.2063 0 0 0 255
18.8939 -32.9776 0 0 0 255
40.2227 -30.9988 0 0 0 255
-29.8105 -40.2142 0 0 0 255
9.03989 8.91095 0 0 0 255
8.62719 26.0979 0 0 0 255
30.6839 -13.9385 0 0 0 255
5.00927 -37.8557 0 0 0 255
30.2248 35.3264 0 0 0 255
31.43 -47.6378 0 0 0 255
30.2702 -1.53531 0 0 0 255
-21.8926 -9.56566 0 0 0 255
39.4588 -34.0122 0 0 0 255
48.1043 37.266 0 0 0 255
-24.7945 14.6024 0 0 0 255
-27.1037 -28.2323 0 0 0 255
-39.3828 -9.82556 0 0 0 255
47.9066 -27.5808 0 0 0 255
10.4512 48.4922 0 0 0 255
-11.2281 34.4559 0 0 0 255
38.6859 30.5443 0 0 0 255
-17.1989 -5.32357 0 0 0 255
-16.516 49.9023 0 0 0 255
39.5915 -25.5026 0 0 0 255
-20.5609 18.218 0 0 0 255
-46.8606 -11.5128 0 0 0 255
-9.41204 -16.7388 0 0 0 255
40.9633 6.04675 0 0 0 255
14.4181 24.6082 0 0 0 255
-34.0729 -32.4467 0 0 0 255
-42.9808 22.423 0 0 0 255
13.6245 -12.7466 0 0 0 255
42.8496 44.6703 0 0 0 255
20.4929 -19.4575 0 0 0 255
-43.4344 42.1249 0 0 0 255
-12.9031 -37.8371 0 0 0 255
-38.9958 14.5188 0 0 0 255
-28.9724 1.1724 0 0 0 255
18.0899 27.7827 0 0 0 255
42.3989 49.5691 0 0 0 255
26.8058 -43.8469 0 0 0 255
45.56 -0.589783 0 0 0 255
-11.843 27.696 0 0 0 255
-49.6529 11.8254 0 0 0 255
11.6711 47.7308 0 0 0 255
42.9517 12.5911 0 0 0 255
6.20241 9.89238 0 0 0 255
-40.6895 -5.52686 0 0 0 255
-37.6172 49.0701 0 0 0 255
42.7101 22.9767 0 0 0 255
-7.94998 -46.5727 0 0 0 255
35.5406 43.3653 0 0 0 255
-11.1087 -3.52854 0 0 0 255
-6.09023 -17.044 0 0 0 255
-48.096 31.8326 0 0 0 255
-17.1261 20.6235 0 0 0 255
-37.1701 -23.5742 0 0 0 255
-32.7373 13.9742 0 0 0 255
48.0206 29.4037 0 0 0 255
45.8788 -40.2113 0 0 0 255
40.702 9.35073 0 0 0 255
16.6706 -21.6332 0 0 0 255
-13.0785 -2.96095 0 0 0 255
-33.047 46.0577 0 0 0 255
42.0378 -7.04721 0 0 0 255
23.122 -24.6301 0 0 0 255
-22.5039 1.48243 0 0 0 255
1.83184 -49.0299 0 0 0 255
-19.3377 33.7004 0 0 0 255
-13.2637 -9.22728 0 0 0 255
-41.3483 24.3194 0 0 0 255
7.35781 33.0652 0 0 0 255
41.0688 33.4639 0 0 0 255
-24.08 -19.9687 0 0 0 255
10.1357 -18.6124 0 0 0 255
-41.7071 -20.8023 0 0 0 255
-25.0445 -38.9167 0 0 0 255
44.8242 30.9465 0 0 0 255
46.1116 23.7488 0 0 0 255
-43.9847 -2.19212 0 0 0 255
-46.0739 -43.1727 0 0 0 255
15.0248 -22.0102 0 0 0 255
8.9843 -4.08817 0 0 0 255
-17.031 23.5647 0 0 0 255
41.2914 17.1172 0 0 0 255
6.65985 -28.2345 0 0 0 255
17.1658 -23.3354 0 0 0 255
46.2737 -41.3395 0 0 0 255
-37.5896 18.7264 0 0 0 255
48.2533 -14.8725 0 0 0 255
-32.0117 -34.3929 0 0 0 255
12.5348 45.7623 0 0 0 255
-44.0705 46.266 0 0 0 255
25.4644 10.7881 0 0 0 255
-37.3252 -23.1169 0 0 0 255
-17.17 8.20894 0 0 0 255
-20.1868 -34.4651 0 0 0 255
19.0738 21.1324 0 0 0 255
-8.21255 -45.8628 0 0 0 255
-11.3526 16.8215 0 0 0 255
29.1913 -45.1264 0 0 0 255
-37.6487 -20.924 0 0 0 255
43.9975 27.0904 0 0 0 255
3.08802 -49.7542 0 0 0 255
-6.06731 -3.02818 0 0 0 255
-37.5089 -20.9205 0 0 0 255
19.2504 38.4407 0 0 0 255
-1.67573 -19.6435 0 0 0 255
-27.3133 44.0271 0 0 0 255
-25.4184 20.6108 0 0 0 255
4.91537 -16.9876 0 0 0 255
-10.9877 8.86052 0 0 0 255
10.8628 21.3257 0 0 0 255
-8.34031 -16.0241 0 0 0 255
-7.45893 40.4074 0 0 0 255
8.68408 -12.9415 0 0 0 255
26.3313 11.5654 0 0 0 255
0.971451 49.5658 0 0 0 255
-28.8835 -13.8718 0 0 0 255
-30.6098 -43.2923 0 0 0 255
-6.51933 31.6337 0 0 0 255
-48.3715 38.4353 0 0 0 255
-42.2955 -36.4696 0 0 0 255
-40.5517 -18.6724 0 0 0 255
-27.2728 47.7741 0 0 0 255
2.0439 1.8451 0 0 0 255
0.36 -15.5968 0 0 0 255
-35.8396 13.9527 0 0 0 255
-48.8083 21.9671 0 0 0 255
39.7625 -22.1721 0 0 0 255
15.8239 2.54558 0 0 0 255
39.0953 13.0295 0 0 0 255
20.8638 36.669 0 0 0 255
30.9279 -38.2173 0 0 0 255
47.654 -11.307 0 0 0 255
37.0663 -47.772 0 0 0 255
-10.6638 -12.3794 0 0 0 255
20.7199 28.2477 0 0 0 255
26.4311 2.0133 0 0 0 255
-5.71472 -26.3014 0 0 0 255
31.0723 16.7508 0 0 0 255
1.53475 13.1338 0 0 0 255
-7.25977 -42.5299 0 0 0 255
-20.1016 38.2632 0 0 0 255
-11.4864 -37.2534 0 0 0 255
-27.3797 0.270112 0 0 0 255
-19.5732 35.7824 0 0 0 255
1.85112 4.93872 0 0 0 255
-37.7163 -6.32028 0 0 0 255
-0.168996 -18.844 0 0 0 255
-34.611 -45.6201 0 0 0 255
47.8415 25.6572 0 0 0 255
2.7544 24.9192 0 0 0 255
-41.8967 -11.6627 0 0 0 255
8.90449 -49.9073 0 0 0 255
37.6189 34.1219 0 0 0 255
46.7426 44.9449 0 0 0 255
-18.7495 40.7153 0 0 0 255
-27.6895 3.00551 0 0 0 255
15.6068 31.7436 0 0 0 255
-15.3735 -39.835 0 0 0 255
46.7103 12.003 0 0 0 255
-24.7582 36.5176 0 0 0 255
36.2805 -32.0397 0 0 0 255
37.9667 10.8325 0 0 0 255
-23.0394 -48.2443 0 0 0 255
31.2054 -26.5441 0 0 0 255
-17.8178 -15.3742 0 0 0 255
10.3513 8.95765 0 0 0 255
44.3297 -46.9428 0 0 0 255
1.68073 -24.358 0 0 0 255
-4.4472 39.8186 0 0 0 255
28.383 -23.3459 0 0 0 255
7.08284 5.30904 0 0 0 255
35.2202 -43.7567 0 0 0 255
1.30947 14.7575 0 0 0 255
-27.4921 37.847 0 0 0 255
-0.968245 31.1091 0 0 0 255
-29.9811 49.5705 0 0 0 255
12.1079 45.5711 0 0 0 255
15.4965 -2.03059 0 0 0 255
-29.0524 9.36024 0 0 0 255
23.3783 23.8513 0 0 0 255
40.7187 37.3352 0 0 0 255
-4.52451 17.6907 0 0 0 255
-36.4335 7.52158 0 0 0 255
-44.5039 1.33434 0 0 0 255
35.437 -5.28736 0 0 0 255
11.3426 -15.7926 0 0 0 255
18.0776 23.7818 0 0 0 255
30.4428 43.5477 0 0 0 255
40.263 20.5335 0 0 0 255
3.93362 24.6524 0 0 0 255
21.1535 22.6822 0 0 0 255
4.31588 -39.7612 0 0 0 255
-27.6138 24.3532 0 0 0 255
28.8833 -18.6379 0 0 0 255
-46.7285 -18.7067 0 0 0 255
21.0244 14.0312 0 0 0 255
41.4732 -26.5347 0 0 0 255
11.7408 18.0042 0 0 0 255
-0.740075 -23.387 0 0 0 255
-47.3248 2.1345 0 0 0 255
-18.5226 45.8153 0 0 0 255
15.0041 24.4361 0 0 0 255
-48.6499 -47.9102 0 0 0 255
24.8665 40.6308 0 0 0 255
42.2505 48.6863 0 0 0 255
-32.8768 -31.6278 0 0 0 255
19.4498 -3.19584 0 0 0 255
5.01516 7.39721 0 0 0 255
32.5784 -9.73998 0 0 0 255
-34.3822 19.9479 0 0 0 255
37.1861 28.4893 0 0 0 255
43.4825 48.6255 0 0 0 255
-13.4474 11.8037 0 0 0 255
-14.5906 -47.1768 0 0 0 255
22.9299 1.93128 0 0 0 255
15.2843 -49.2739 0 0 0 255
6.05162 37.9492 0 0 0 255
49.5414 -12.3661 0 0 0 255
26.3606 -0.414755 0 0 0 255
-8.64381 -14.138 0 0 0 255
-35.4551 49.863 0 0 0 255
-17.286 -36.0332 0 0 0 255
34.4779 0.499839 0 0 0 255
17.295 48.2347 0 0 0 255
-30.7127 15.3973 0 0 0 255
-39.5288 46.2942 0 0 0 255
-9.50846 -9.60519 0 0 0 255
40.8458 -10.5846 0 0 0 255
39.7666 -2.74002 0 0 0 255
-21.0696 -48.5178 0 0 0 255
-21.4151 43.6079 0 0 0 255
-42.1829 -11.8405 0 0 0 255
-2.98674 48.838 0 0 0 255
13.1317 41.7697 0 0 0 255
-15.9081 -29.6575 0 0 0 255
-30.5762 30.016 0 0 0 255
-48.2203 -38.3481 0 0 0 255
-28.4342 -9.9815 0 0 0 255
43.5615 45.1917 0 0 0 255
-29.6441 40.3338 0 0 0 255
47.8015 -26.4161 0 0 0 255
-30.874 34.5498 0 0 0 255
-1.03528 -12.4167 0 0 0 255
8.33841 43.3231 0 0 0 255
28.7959 42.3846 0 0 0 255
17.0875 21.9157 0 0 0 255
10.2969 -49.1638 0 0 0 255
43.1821 -20.1566 0 0 0 255
49.0406 23.6444 0 0 0 255
-31.4989 10.906 0 0 0 255
-1.5651 -37.7053 0 0 0 255
41.7041 -41.9647 0 0 0 255
14.5828 -8.51805 0 0 0 255
-13.1169 7.74543 0 0 0 255
-3.90519 40.0915 0 0 0 255
-43.7687 38.942 0 0 0 255
28.8589 -40.5096 0 0 0 255
32.6446 -48.7598 0 0 0 255
37.8535 -17.5071 0 0 0 255
49.6581 36.6125 0 0 0 255
-20.3069 -44.7106 0 0 0 255
-26.2859 -38.1438 0 0 0 255
46.6435 -39.7435 0 0 0 255
-32.6553 -38.7004 0 0 0 255
49.0496 -29.8335 0 0 0 255
0.361192 -39.3978 0 0 0 255
46.0932 15.1575 0 0 0 255
48.5264 16.1886 0 0 0 255
1.49982 -7.1975 0 0 0 255
7.22898 12.2117 0 0 0 255
-24.724 -42.7951 0 0 0 255
17.4213 32.4182 0 0 0 255
-40.3528 20.0617 0 0 0 255
3.2951 12.0874 0 0 0 255
15.1555 -10.0048 0 0 0 255
-34.0652 11.1184 0 0 0 255
37.6641 25.9138 0 0 0 255
42.0924 46.1352 0 0 0 255
30.9232 17.6818 0 0 0 255
39.4575 -13.8587 0 0 0 255
-35.6174 43.1013 0 0 0 255
12.7795 -14.0234 0 0 0 255
-16.6708 -41.9795 0 0 0 255
7.65515 9.54335 0 0 0 255
-6.73415 30.2936 0 0 0 255
35.1279 8.75354 0 0 0 255
-46.0412 24.9515 0 0 0 255
34.6232 5.11834 0 0 0 255
-24.3849 15.8159 0 0 0 255
31.9775 -25.9299 0 0 0 255
-17.3241 34.4958 0 0 0 255
-24.8253 32.7314 0 0 0 255
-14.3693 46.9861 0 0 0 255
-37.4213 5.2662 0 0 0 255
11.639 41.8254 0 0 0 255
-20.3389 -27.0204 0 0 0 255
-3.70755 -8.18111 0 0 0 255
15.9441 -0.519086 0 0 0 255
-18.5394 -17.5453 0 0 0 255
-22.1928 -11.0867 0 0 0 255
-25.9287 45.2214 0 0 0 255
-12.3135 1.88329 0 0 0 255
46.3727 11.7609 0 0 0 255
29.8557 49.19 0 0 0 255
-5.21827 -43.2899 0 0 0 255
38.9969 -18.1987 0 0 0 255
-35.986 39.2852 0 0 0 255
26.7997 33.4226 0 0 0 255
-30.1456 30.0099 0 0 0 255
-20.8038 -3.8423 0 0 0 255
18.7923 -36.0581 0 0 0 255
-5.64988 -22.9079 0 0 0 255
19.7857 -35.253 0 0 0 255
34.0474 -41.092 0 0 0 255
-12.8699 15.651 0 0 0 255
45.2274 -2.47019 0 0 0 255
-12.4928 -32.616 0 0 0 255
-22.9053 -13.304 0 0 0 255
-16.6819 18.5571 0 0 0 255
-25.4338 40.7442 0 0 0 255
-46.7709 34.6143 0 0 0 255
39.251 -34.9779 0 0 0 255
-8.92021 -4.902 0 0 0 255
10.301 -1.35352 0 0 0 255
28.3743 -38.6991 0 0 0 255
38.1054 30.6924 0 0 0 255
1.21988 46.6992 0 0 0 255
-15.1084 26.0485 0 0 0 255
-31.4189 19.5568 0 0 0 255
28.4729 -13.6051 0 0 0 255
26.0814 -38.497 0 0 0 255
-23.2645 17.4248 0 0 0 255
-34.9755 26.8182 0 0 0 255
3.9376 30.7428 0 0 0 255
-12.7088 -45.5686 0 0 0 255
32.5969 -45.7024 0 0 0 255
31.8848 26.0107 0 0 0 255
-11.6842 -19.1611 0 0 0 255
-19.3876 2.37495 0 0 0 255
33.9194 -14.9352 0 0 0 255
48.4115 29.9523 0 0 0 255
23.2652 16.1886 0 0 0 255
48.4843 19.6006 0 0 0 255
48.4293 -47.5491 0 0 0 255
15.1414 21.1312 0 0 0 255
-39.2852 7.28474 0 0 0 255
15.8384 -9.18335 0 0 0 255
28.5113 -32.0255 0 0 0 255
9.78374 7.67684 0 0 0 255
-30.7156 -15.3106 0 0 0 255
49.7955 -40.3504 0 0 0 255
21.6112 -29.3992 0 0 0 255
36.8225 -21.8976 0 0 0 255
11.9607 -32.0407 0 0 0 255
40.0275 -12.1006 0 0 0 255