ply
format ascii 1.0
element vertex 1000
property float x
property float y
property float z
property uchar red
property uchar green
property uchar blue
end_header
-41.5272 0 -19.4753 0 255 0
0.332693 0 -14.0775 0 255 0
20.3681 0 26.9824 0 255 0
-49.9541 0 28.9827 0 255 0
-18.7103 0 8.47646 0 255 0
-38.3516 0 -18.9161 0 255 0
-6.96701 0 -10.4799 0 255 0
-22.8072 0 2.88486 0 255 0
-30 0 -37.1859 0 255 0
29.3404 0 42.9138 0 255 0
-41.8811 0 11.8049 0 255 0
26.5885 0 -27.4296 0 255 0
2.38288 0 -22.5604 0 255 0
21.774 0 9.42099 0 255 0
39.1461 0 28.8318 0 255 0
-2.12126 0 40.4436 0 255 0
-35.9053 0 -35.7336 0 255 0
0.794047 0 -0.552919 0 255 0
10.0065 0 -43.1407 0 255 0
-41.8739 0 -8.44741 0 255 0
38.8071 0 -7.33145 0 255 0
34.6256 0 -26.301 0 255 0
-33.1453 0 -40.8406 0 255 0
2.17367 0 -9.55696 0 255 0
24.3436 0 -23.4778 0 255 0
-14.665 0 0.052216 0 255 0
41.3023 0 37.9412 0 255 0
8.75333 0 35.4826 0 255 0
27.2693 0 -45.926 0 255 0
-9.64646 0 38.7514 0 255 0
-6.98523 0 3.18547 0 255 0
23.0541 0 11.8932 0 255 0
-13.3153 0 -19.1723 0 255 0
-6.58698 0 38.6495 0 255 0
-1.99857 0 -6.75072 0 255 0
21.1487 0 -41.5504 0 255 0
22.3245 0 -5.30835 0 255 0
-47.2889 0 -42.2315 0 255 0
-35.4244 0 -3.43141 0 255 0
17.9167 0 -0.592314 0 255 0
-39.4856 0 -27.7614 0 255 0
23.3791 0 -35.0403 0 255 0
45.9334 0 -40.1749 0 255 0
20.2462 0 25.4628 0 255 0
-2.77798 0 -20.8715 0 255 0
-44.0011 0 -9.18554 0 255 0
38.9883 0 -29.2558 0 255 0
-19.4312 0 41.0157 0 255 0
24.4568 0 -8.88314 0 255 0
-20.9223 0 37.8038 0 255 0
-19.9645 0 49.0922 0 255 0
35.5817 0 -38.2088 0 255 0
13.5322 0 4.77337 0 255 0
-5.59834 0 36.1352 0 255 0
5.77972 0 14.4914 0 255 0
-45.2914 0 24.2141 0 255 0
-27.1387 0 -45.9507 0 255 0
19.8861 0 -20.9299 0 255 0
1.20583 0 -7.87755 0 255 0
27.6554 0 45.0312 0 255 0
3.6538 0 2.70564 0 255 0
-7.05438 0 -45.8256 0 255 0
-4.18955 0 22.7991 0 255 0
-37.1401 0 -13.4182 0 255 0
9.23142 0 9.18953 0 255 0
23.7042 0 30.3792 0 255 0
-28.4366 0 18.2865 0 255 0
38.5358 0 33.2304 0 255 0
-8.23016 0 -17.2904 0 255 0
17.3124 0 42.4901 0 255 0
-42.6799 0 15.3244 0 255 0
-42.4066 0 -12.2448 0 255 0
8.22819 0 23.4358 0 255 0
-26.641 0 43.1804 0 255 0
-37.561 0 -34.2475 0 255 0
25.5205 0 -45.2835 0 255 0
-20.0077 0 -39.8547 0 255 0
28.4297 0 -9.13254 0 255 0
33.8924 0 31.7075 0 255 0
-7.14958 0 -17.6106 0 255 0
-19.9064 0 32.5074 0 255 0
-11.0279 0 8.90584 0 255 0
-43.2792 0 -3.75155 0 255 0
30.5665 0 26.2006 0 255 0
-10.7922 0 44.4398 0 255 0
-12.3787 0 -40.3545 0 255 0
9.83319 0 -45.8723 0 255 0
37.2413 0 -39.0414 0 255 0
43.0833 0 8.13794 0 255 0
-8.57678 0 4.4233 0 255 0
28.4032 0 0.175278 0 255 0
-49.1975 0 -36.0399 0 255 0
-17.9675 0 4.87353 0 255 0
11.9362 0 -40.0226 0 255 0
24.4916 0 -1.56493 0 255 0
28.8663 0 15.4531 0 255 0
-24.4186 0 37.4064 0 255 0
31.3026 0 18.4135 0 255 0
27.4027 0 -3.07197 0 255 0
-31.8778 0 -5.11047 0 255 0
-24.5997 0 26.054 0 255 0
4.44865 0 -18.0247 0 255 0
-7.37841 0 -31.2393 0 255 0
-42.1193 0 15.4457 0 255 0
40.6658 0 39.8454 0 255 0
6.34643 0 -8.26809 0 255 0
-39.9693 0 -0.224613 0 255 0
-13.8358 0 -31.6003 0 255 0
34.9732 0 -23.6113 0 255 0
27.5567 0 -39.8163 0 255 0
-14.2305 0 -33.6533 0 255 0
36.0153 0 -11.0699 0 255 0
-21.5308 0 -20.7188 0 255 0
-20.3515 0 1.13348 0 255 0
32.7555 0 -39.1927 0 255 0
-48.1765 0 36.505 0 255 0
-42.2332 0 -37.7507 0 255 0
17.1695 0 -24.2043 0 255 0
-21.6822 0 -48.0333 0 255 0
-13.5539 0 -19.5234 0 255 0
-2.53178 0 49.718 0 255 0
-26.7628 0 -18.08 0 255 0
-20.1551 0 35.0296 0 255 0
-33.0363 0 5.73897 0 255 0
-6.10643 0 42.182 0 255 0
43.8436 0 -43.5622 0 255 0
-26.067 0 -36.1833 0 255 0
-8.86156 0 -47.8304 0 255 0
-1.17127 0 16.5784 0 255 0
-16.8343 0 26.7249 0 255 0
10.8729 0 5.44351 0 255 0
43.3897 0 39.5123 0 255 0
31.9776 0 -1.11335 0 255 0
46.1466 0 40.2963 0 255 0
-9.01579 0 4.72954 0 255 0
45.097 0 11.2421 0 255 0
49.1319 0 -39.6045 0 255 0
10.3743 0 -18.0132 0 255 0
48.2391 0 -19.6996 0 255 0
-21.9293 0 18.9891 0 255 0
-44.3678 0 9.21898 0 255 0
31.4281 0 -27.7683 0 255 0
-18.7871 0 -42.0671 0 255 0
-12.9264 0 -25.8825 0 255 0
42.1522 0 45.7157 0 255 0
30.5931 0 -28.199 0 255 0
-21.9593 0 0.116036 0 255 0
-36.5269 0 22.7416 0 255 0
-21.6746 0 45.7506 0 255 0
5.79809 0 22.2319 0 255 0
-5.09676 0 33.4087 0 255 0
-49.01 0 18.9957 0 255 0
46.2467 0 38.7178 0 255 0
-48.9466 0 5.58376 0 255 0
27.7154 0 14.143 0 255 0
42.5058 0 12.9963 0 255 0
-3.80239 0 46.2208 0 255 0
-9.80906 0 21.2726 0 255 0
-43.5104 0 46.9198 0 255 0
-30.3279 0 -27.3885 0 255 0
-29.8805 0 -22.5552 0 255 0
-31.9758 0 -17.0909 0 255 0
-1.2322 0 22.8382 0 255 0
33.745 0 -42.8796 0 255 0
37.5014 0 -17.5527 0 255 0
36.3346 0 -20.1137 0 255 0
6.20189 0 -19.4801 0 255 0
14.7373 0 -2.55268 0 255 0
-31.2875 0 -13.4437 0 255 0
34.3402 0 -44.2302 0 255 0
-22.8637 0 -20.6349 0 255 0
-30.5978 0 44.2617 0 255 0
21.1033 0 -27.0674 0 255 0
5.99072 0 14.3615 0 255 0
-9.53913 0 39.1619 0 255 0
-28.3343 0 1.09731 0 255 0
45.5221 0 45.6504 0 255 0
47.3602 0 5.80573 0 255 0
-17.4168 0 26.6151 0 255 0
-16.2003 0 -39.2013 0 255 0
34.0209 0 -11.8849 0 255 0
14.8498 0 14.4471 0 255 0
47.7553 0 40.5917 0 255 0
15.7187 0 -31.2956 0 255 0
49.6857 0 -33.3103 0 255 0
-7.27588 0 9.03223 0 255 0
-27.5076 0 33.069 0 255 0
-15.817 0 45.757 0 255 0
16.2573 0 13.3409 0 255 0
42.1689 0 -28.2111 0 255 0
-16.9792 0 -20.6609 0 255 0
-25.447 0 -46.5271 0 255 0
-37.7704 0 -26.9936 0 255 0
1.97108 0 12.7922 0 255 0
24.2795 0 12.5469 0 255 0
-47.1539 0 34.4543 0 255 0
36.0191 0 40.7379 0 255 0
-32.6183 0 -5.07806 0 255 0
24.1519 0 2.27993 0 255 0
-3.20947 0 17.8758 0 255 0
-44.2634 0 -31.8331 0 255 0
45.1403 0 -0.0894961 0 255 0
-17.1517 0 11.7337 0 255 0
-14.2504 0 37.8405 0 255 0
-27.4721 0 -21.7056 0 255 0
-46.4394 0 45.2349 0 255 0
47.115 0 -20.642 0 255 0
29.4286 0 -16.1029 0 255 0
2.603 0 -15.0226 0 255 0
-13.5269 0 -22.4588 0 255 0
-11.6539 0 9.32278 0 255 0
-46.1423 0 -13.3158 0 255 0
-3.99745 0 32.2236 0 255 0
-35.0057 0 -8.3109 0 255 0
25.3978 0 -36.1775 0 255 0
-41.3145 0 -4.45444 0 255 0
49.7028 0 -30.4037 0 255 0
-3.85023 0 -43.4397 0 255 0
-12.338 0 26.0305 0 255 0
-22.8184 0 -3.24855 0 255 0
-47.5187 0 -17.8823 0 255 0
-22.2941 0 -45.7538 0 255 0
-3.72184 0 24.2821 0 255 0
-42.3552 0 -30.1642 0 255 0
18.68 0 -16.3386 0 255 0
-32.3929 0 7.11215 0 255 0
-40.4094 0 31.944 0 255 0
-36.8364 0 -9.71119 0 255 0
6.21723 0 40.8043 0 255 0
31.2619 0 24.1226 0 255 0
-43.794 0 14.6369 0 255 0
-22.3951 0 26.0003 0 255 0
-0.456564 0 5.27131 0 255 0
-1.82119 0 -32.6476 0 255 0
-27.7286 0 23.7506 0 255 0
49.9599 0 -35.5536 0 255 0
10.9415 0 -2.51532 0 255 0
-24.9183 0 18.9133 0 255 0
17.0328 0 -29.2636 0 255 0
-34.2552 0 -15.4739 0 255 0
19.39 0 -49.2803 0 255 0
19.5629 0 22.7518 0 255 0
48.9536 0 -17.8686 0 255 0
-8.03823 0 -32.1559 0 255 0
23.4132 0 -26.4463 0 255 0
40.2922 0 -38.252 0 255 0
-20.1249 0 -0.730025 0 255 0
-20.0336 0 34.8847 0 255 0
-27.1284 0 16.0567 0 255 0
20.3082 0 25.0473 0 255 0
-45.3156 0 39.7675 0 255 0
0.2967 0 17.2795 0 255 0
-37.0639 0 17.5303 0 255 0
48.5067 0 -30.2468 0 255 0
-35.8314 0 -4.77744 0 255 0
-32.1252 0 -41.7514 0 255 0
-4.18954 0 48.1682 0 255 0
11.8129 0 22.643 0 255 0
23.12 0 7.12614 0 255 0
-29.7193 0 25.5378 0 255 0
-45.3323 0 -4.65522 0 255 0
-24.0927 0 29.0028 0 255 0
-8.19078 0 2.07149 0 255 0
-42.5515 0 -30.1262 0 255 0
-12.125 0 7.00815 0 255 0
6.98055 0 -14.8036 0 255 0
11.0177 0 22.0923 0 255 0
0.543155 0 14.9557 0 255 0
10.7029 0 3.21479 0 255 0
13.3511 0 -22.4262 0 255 0
9.65789 0 6.23985 0 255 0
21.4093 0 -5.10596 0 255 0
-28.35 0 -6.82883 0 255 0
-20.293 0 -21.3819 0 255 0
15.363 0 -49.6915 0 255 0
-28.774 0 -39.1625 0 255 0
-28.5745 0 -20.3479 0 255 0
-34.9616 0 5.69927 0 255 0
-26.3162 0 -18.3992 0 255 0
33.0234 0 -35.0594 0 255 0
-32.5909 0 8.87234 0 255 0
-8.6826 0 23.0582 0 255 0
44.6205 0 -43.8014 0 255 0
-48.3405 0 -30.5339 0 255 0
39.1342 0 -12.8626 0 255 0
17.7136 0 -42.755 0 255 0
-18.1405 0 20.401 0 255 0
40.6813 0 -14.1719 0 255 0
42.44 0 1.84441 0 255 0
26.2161 0 -13.584 0 255 0
-6.73593 0 30.6655 0 255 0
-20.4572 0 -7.18354 0 255 0
34.8886 0 -1.43801 0 255 0
-39.2082 0 30.7242 0 255 0
-19.4114 0 20.4696 0 255 0
-22.3607 0 -39.1886 0 255 0
-36.6996 0 26.6922 0 255 0
32.6384 0 -46.0639 0 255 0
7.14954 0 -22.9549 0 255 0
-23.741 0 22.2987 0 255 0
-37.1716 0 7.29086 0 255 0
-41.7682 0 -28.6964 0 255 0
-36.5156 0 27.1014 0 255 0
32.76 0 -40.0401 0 255 0
22.7546 0 -29.7392 0 255 0
-32.3503 0 41.9201 0 255 0
46.5091 0 30.0343 0 255 0
31.1913 0 -44.5938 0 255 0
-35.2472 0 -16.5375 0 255 0
12.8351 0 20.7016 0 255 0
17.5405 0 12.5653 0 255 0
-43.7052 0 -49.4941 0 255 0
-22.2231 0 -2.34066 0 255 0
-26.4242 0 -36.9438 0 255 0
-32.1021 0 -48.797 0 255 0
28.5747 0 40.4588 0 255 0
17.0124 0 48.7176 0 255 0
19.9118 0 -29.325 0 255 0
26.7967 0 18.2403 0 255 0
-35.9394 0 -14.8574 0 255 0
-18.4215 0 16.7424 0 255 0
28.7957 0 12.4525 0 255 0
-21.2062 0 -3.26942 0 255 0
-5.258 0 -30.3406 0 255 0
4.40932 0 -2.61743 0 255 0
-23.8044 0 -31.588 0 255 0
21.563 0 -40.8402 0 255 0
-39.43 0 -6.00362 0 255 0
48.2892 0 -27.022 0 255 0
-27.0858 0 26.1212 0 255 0
-13.2084 0 -41.1035 0 255 0
-9.92005 0 -0.383741 0 255 0
17.127 0 39.2829 0 255 0
9.96192 0 20.0386 0 255 0
-43.5323 0 32.964 0 255 0
0.184515 0 -8.95103 0 255 0
-33.5961 0 -34.844 0 255 0
-44.7576 0 30.7276 0 255 0
-31.108 0 -44.7852 0 255 0
45.7974 0 49.7176 0 255 0
-1.84133 0 0.169827 0 255 0
3.68554 0 -23.8091 0 255 0
36.3177 0 -24.9344 0 255 0
29.5499 0 12.2179 0 255 0
6.07966 0 -36.8783 0 255 0
10.0494 0 26.7995 0 255 0
-29.1759 0 -17.419 0 255 0
39.5678 0 16.0814 0 255 0
39.7088 0 25.5765 0 255 0
24.7925 0 20.9214 0 255 0
-43.9535 0 -11.0949 0 255 0
-20.4769 0 21.8931 0 255 0
-4.66715 0 44.76 0 255 0
7.76044 0 48.5387 0 255 0
43.7398 0 23.3037 0 255 0
-6.97211 0 -4.56852 0 255 0
-37.2366 0 40.6497 0 255 0
48.1014 0 3.76571 0 255 0
-8.57582 0 16.3329 0 255 0
23.6721 0 25.1339 0 255 0
-22.3859 0 -33.1799 0 255 0
46.2458 0 -13.0533 0 255 0
28.4477 0 43.7215 0 255 0
9.02931 0 44.6178 0 255 0
-5.83974 0 -22.326 0 255 0
7.52274 0 19.4377 0 255 0
-16.9076 0 -31.0167 0 255 0
40.1265 0 32.02 0 255 0
20.8042 0 -35.9513 0 255 0
-31.8795 0 43.7527 0 255 0
21.8598 0 2.97683 0 255 0
7.08527 0 -42.1668 0 255 0
-23.219 0 19.1935 0 255 0
-9.62091 0 -19.2683 0 255 0
14.4422 0 35.523 0 255 0
48.7403 0 24.9803 0 255 0
-19.4938 0 27.5545 0 255 0
-36.1604 0 -34.2359 0 255 0
3.25704 0 -43.687 0 255 0
25.5113 0 -12.6548 0 255 0
8.94759 0 31.4173 0 255 0
-5.51293 0 -10.5307 0 255 0
-8.83829 0 29.6742 0 255 0
16.5959 0 -2.36044 0 255 0
13.6352 0 -36.6114 0 255 0
-12.723 0 -43.4794 0 255 0
-2.79945 0 14.0283 0 255 0
5.16524 0 -12.063 0 255 0
-7.43012 0 7.84782 0 255 0
-5.42919 0 48.1386 0 255 0
0.0411198 0 -10.7402 0 255 0
49.2944 0 14.1733 0 255 0
1.08109 0 28.5138 0 255 0
-37.3646 0 -42.4716 0 255 0
-49.0679 0 -21.2762 0 255 0
-26.9363 0 -33.4245 0 255 0
12.9793 0 8.04259 0 255 0
-49.6217 0 14.7219 0 255 0
3.62695 0 42.0776 0 255 0
19.5429 0 -49.8706 0 255 0
21.6587 0 -27.5319 0 255 0
3.69054 0 -28.2599 0 255 0
-0.427887 0 -32.1223 0 255 0
45.4982 0 15.571 0 255 0
-19.3455 0 31.4621 0 255 0
43.6423 0 -36.3272 0 255 0
26.5579 0 -15.1062 0 255 0
7.48965 0 35.663 0 255 0
-2.74499 0 10.6539 0 255 0
7.29474 0 16.4516 0 255 0
-47.8747 0 19.5713 0 255 0
-5.38487 0 33.0418 0 255 0
-24.7467 0 -46.2773 0 255 0
-16.2898 0 -22.9345 0 255 0
-7.36854 0 -35.5174 0 255 0
16.6279 0 7.07339 0 255 0
9.25756 0 33.318 0 255 0
-8.31661 0 24.1914 0 255 0
-6.77007 0 24.4177 0 255 0
42.1262 0 10.2199 0 255 0
-20.0291 0 47.2599 0 255 0
-28.6857 0 4.35765 0 255 0
-29.1951 0 -43.5692 0 255 0
-13.6881 0 -39.5363 0 255 0
-45.6954 0 -7.00012 0 255 0
-16.5823 0 -40.0904 0 255 0
-21.9972 0 -8.15863 0 255 0
-1.56312 0 -13.7601 0 255 0
9.93714 0 -31.5069 0 255 0
-37.3936 0 -25.267 0 255 0
33.7692 0 39.6183 0 255 0
-3.98381 0 -17.8817 0 255 0
-36.5673 0 20.9404 0 255 0
18.0636 0 12.6267 0 255 0
26.8497 0 -42.9115 0 255 0
-15.2852 0 14.8286 0 255 0
4.49662 0 38.828 0 255 0
-14.3717 0 -1.2536 0 255 0
20.952 0 13.9051 0 255 0
3.17248 0 4.13385 0 255 0
-18.8648 0 13.5326 0 255 0
21.9197 0 0.689023 0 255 0
-40.0498 0 12.2609 0 255 0
9.29382 0 9.88154 0 255 0
-18.7889 0 -8.61615 0 255 0
6.20834 0 45.1238 0 255 0
19.778 0 -4.47716 0 255 0
45.4156 0 -4.98758 0 255 0
-10.5451 0 2.66464 0 255 0
-48.9181 0 15.334 0 255 0
5.81141 0 -39.4947 0 255 0
24.7975 0 -7.02157 0 255 0
-44.0982 0 -38.883 0 255 0
25.3519 0 5.31349 0 255 0
37.9445 0 41.4535 0 255 0
3.92004 0 -42.6837 0 255 0
14.0961 0 13.0085 0 255 0
33.0063 0 -32.3008 0 255 0
-38.5314 0 24.0523 0 255 0
43.8182 0 43.2302 0 255 0
-29.3648 0 -42.7604 0 255 0
-23.4687 0 33.3329 0 255 0
-22.6758 0 -10.4689 0 255 0
31.2865 0 -22.3489 0 255 0
4.9402 0 26.2913 0 255 0
10.2354 0 -22.9616 0 255 0
-14.0583 0 -39.9284 0 255 0
-34.555 0 -46.9371 0 255 0
-39.3785 0 17.8816 0 255 0
6.42928 0 29.2294 0 255 0
-37.8226 0 8.72729 0 255 0
-42.843 0 -38.901 0 255 0
36.1834 0 29.0077 0 255 0
21.1048 0 17.6253 0 255 0
23.2476 0 23.9435 0 255 0
31.939 0 -6.42623 0 255 0
13.2819 0 -40.7505 0 255 0
-26.2297 0 -36.3199 0 255 0
2.15151 0 36.2626 0 255 0
25.4497 0 -7.847 0 255 0
-48.7508 0 -1.79938 0 255 0
-32.8679 0 -25.1166 0 255 0
-24.9184 0 39.5401 0 255 0
-35.7096 0 38.1521 0 255 0
-27.6566 0 10.8894 0 255 0
-45.3877 0 -33.2762 0 255 0
31.1355 0 33.6168 0 255 0
45.8685 0 48.1078 0 255 0
-37.154 0 -40.4778 0 255 0
-48.3002 0 1.38175 0 255 0
-3.10665 0 13.9565 0 255 0
31.196 0 -23.8633 0 255 0
25.8567 0 17.0445 0 255 0
-0.650385 0 -21.059 0 255 0
13.1788 0 29.6883 0 255 0
19.3094 0 -22.3711 0 255 0
39.4297 0 32.4267 0 255 0
0.450199 0 7.61184 0 255 0
-42.1771 0 47.8747 0 255 0
-1.68374 0 -2.80049 0 255 0
-0.608341 0 7.44839 0 255 0
20.8051 0 -42.4414 0 255 0
3.61712 0 -42.0202 0 255 0
-23.811 0 17.1714 0 255 0
-45.8238 0 -30.0835 0 255 0
-16.7095 0 37.9783 0 255 0
-27.9676 0 22.2919 0 255 0
-46.0294 0 -24.8507 0 255 0
-4.17002 0 -14.2168 0 255 0
-23.5163 0 -20.013 0 255 0
-24.0359 0 -1.7816 0 255 0
-25.5032 0 12.8707 0 255 0
-6.30691 0 31.0243 0 255 0
43.136 0 13.4867 0 255 0
39.2396 0 -46.6285 0 255 0
-5.54364 0 3.87899 0 255 0
-26.3885 0 -9.70498 0 255 0
-32.6168 0 35.8452 0 255 0
23.3137 0 -32.7285 0 255 0
-10.7733 0 -31.1619 0 255 0
18.4785 0 40.4207 0 255 0
48.7745 0 -38.016 0 255 0
-9.07477 0 -10.6652 0 255 0
-3.94841 0 10.9242 0 255 0
-18.9379 0 -25.8782 0 255 0
29.2988 0 5.34768 0 255 0
37.1197 0 -32.7809 0 255 0
12.2129 0 -38.2629 0 255 0
18.7618 0 47.5126 0 255 0
-10.2965 0 32.1337 0 255 0
-43.8582 0 27.6572 0 255 0
46.9416 0 46.324 0 255 0
-40.0575 0 -35.6835 0 255 0
29.023 0 3.64817 0 255 0
-16.051 0 -16.1738 0 255 0
-15.9633 0 -49.4153 0 255 0
-39.0862 0 9.01108 0 255 0
49.6128 0 -33.3473 0 255 0
-37.7845 0 44.0729 0 255 0
5.73454 0 -21.4885 0 255 0
-32.9447 0 2.35858 0 255 0
-26.2569 0 -27.4567 0 255 0
35.2075 0 45.2831 0 255 0
-44.7401 0 -29.7069 0 255 0
-18.2803 0 -30.0811 0 255 0
47.1218 0 19.2843 0 255 0
48.8319 0 -38.6073 0 255 0
6.04585 0 -37.8299 0 255 0
-25.6494 0 -36.9688 0 255 0
18.37 0 -46.9618 0 255 0
40.0915 0 -23.3775 0 255 0
44.311 0 -30.4865 0 255 0
-9.86309 0 -21.5959 0 255 0
-21.3119 0 22.6791 0 255 0
8.37331 0 14.2592 0 255 0
10.309 0 3.3771 0 255 0
14.4823 0 -9.1537 0 255 0
41.2648 0 26.082 0 255 0
29.8768 0 -39.3064 0 255 0
39.806 0 32.1791 0 255 0
17.9226 0 47.9794 0 255 0
3.41066 0 -29.4462 0 255 0
20.5261 0 23.174 0 255 0
-21.4041 0 12.4955 0 255 0
39.6279 0 -44.9057 0 255 0
28.0504 0 -44.16 0 255 0
-44.9855 0 6.66113 0 255 0
-33.7341 0 48.19 0 255 0
-5.75044 0 27.3167 0 255 0
-11.6203 0 6.83652 0 255 0
-20.4433 0 44.4286 0 255 0
14.9025 0 -13.669 0 255 0
-36.4429 0 25.1269 0 255 0
-38.7296 0 33.1478 0 255 0
13.6444 0 14.5656 0 255 0
45.3496 0 39.5566 0 255 0
4.56198 0 48.5408 0 255 0
47.4702 0 19.6191 0 255 0
12.044 0 -23.8742 0 255 0
44.8641 0 -37.1465 0 255 0
-34.8781 0 34.7981 0 255 0
31.799 0 -38.0177 0 255 0
-8.43161 0 -1.05274 0 255 0
1.80157 0 -27.6869 0 255 0
-20.8396 0 34.2602 0 255 0
26.3051 0 -0.862846 0 255 0
38.2704 0 44.971 0 255 0
47.0919 0 21.8861 0 255 0
24.3754 0 25.7675 0 255 0
20.4839 0 -23.1076 0 255 0
39.7154 0 45.7141 0 255 0
-35.9059 0 -21.2538 0 255 0
-20.9601 0 -24.3904 0 255 0
39.8436 0 -37.6151 0 255 0
21.9119 0 14.5188 0 255 0
-47.867 0 -29.6877 0 255 0
9.38079 0 -40.1897 0 255 0
-36.6908 0 -3.39384 0 255 0
-47.7234 0 -35.7531 0 255 0
29.1919 0 -3.28621 0 255 0
-34.597 0 11.3485 0 255 0
-27.5292 0 49.1341 0 255 0
43.0118 0 44.6075 0 255 0
-27.222 0 -3.60001 0 255 0
35.5683 0 -15.4557 0 255 0
11.2677 0 -13.9624 0 255 0
21.6321 0 -10.213 0 255 0
-24.9715 0 -13.9727 0 255 0
-38.8644 0 26.0004 0 255 0
-10.3789 0 24.4663 0 255 0
-15.6412 0 14.8384 0 255 0
-20.4927 0 21.6838 0 255 0
-36.4771 0 26.5084 0 255 0
-17.6238 0 -35.974 0 255 0
17.7527 0 44.3244 0 255 0
-34.6296 0 -5.63711 0 255 0
40.5202 0 -34.6559 0 255 0
-7.62709 0 6.83414 0 255 0
45.2298 0 -20.9108 0 255 0
-26.3539 0 -37.9881 0 255 0
20.0038 0 16.6912 0 255 0
25.1843 0 -47.2105 0 255 0
-40.2533 0 10.3632 0 255 0
-5.43335 0 -44.8481 0 255 0
-8.04192 0 49.4136 0 255 0
-8.96774 0 -12.9796 0 255 0
-31.2965 0 9.93836 0 255 0
-1.18111 0 15.035 0 255 0
-30.1963 0 4.43418 0 255 0
-45.7034 0 -49.3297 0 255 0
12.8216 0 -13.6086 0 255 0
-49.4567 0 -29.1461 0 255 0
-29.5421 0 23.3613 0 255 0
-45.1851 0 -29.1613 0 255 0
-19.9409 0 9.33908 0 255 0
34.4445 0 48.8111 0 255 0
-1.76985 0 32.2658 0 255 0
-13.8493 0 14.229 0 255 0
-40.6213 0 -6.63117 0 255 0
-24.8124 0 0.0688966 0 255 0
9.02644 0 27.7768 0 255 0
33.3505 0 20.0515 0 255 0
35.3719 0 -24.2955 0 255 0
11.7536 0 41.257 0 255 0
-47.1776 0 -14.2874 0 255 0
-16.9073 0 49.7454 0 255 0
13.1981 0 -26.4563 0 255 0
22.1729 0 39.5084 0 255 0
43.3328 0 2.75717 0 255 0
3.73007 0 1.10906 0 255 0
49.1471 0 -44.6011 0 255 0
-37.2014 0 5.70409 0 255 0
32.1021 0 17.2156 0 255 0
-34.1941 0 20.4367 0 255 0
-34.5824 0 -28.7586 0 255 0
39.8008 0 -28.4418 0 255 0
-17.6432 0 39.1457 0 255 0
15.369 0 35.004 0 255 0
17.3383 0 -21.1976 0 255 0
34.413 0 -4.03443 0 255 0
2.25376 0 3.47025 0 255 0
7.15841 0 14.3768 0 255 0
25.151 0 -32.0427 0 255 0
-38.3248 0 -18.339 0 255 0
-30.7444 0 -34.2255 0 255 0
-9.1943 0 9.80476 0 255 0
-10.8269 0 36.5305 0 255 0
-49.862 0 26.5005 0 255 0
-30.6053 0 -47.733 0 255 0
11.8224 0 11.3327 0 255 0
4.7378 0 18.7513 0 255 0
-48.55 0 19.9724 0 255 0
11.9602 0 47.136 0 255 0
2.91706 0 9.42253 0 255 0
42.3786 0 6.63356 0 255 0
-25.3185 0 -49.4571 0 255 0
-8.9505 0 -15.6003 0 255 0
37.9372 0 -39.9429 0 255 0
-8.22736 0 11.3498 0 255 0
44.4813 0 29.3938 0 255 0
25.7538 0 29.8256 0 255 0
45.6123 0 25.4303 0 255 0
-20.8584 0 47.2713 0 255 0
-3.47678 0 -2.023 0 255 0
-35.954 0 -40.3284 0 255 0
-17.1238 0 -30.8814 0 255 0
6.69609 0 -22.1435 0 255 0
-22.1145 0 -9.03333 0 255 0
-40.6565 0 28.0548 0 255 0
11.5875 0 -30.31 0 255 0
5.23973 0 38.1409 0 255 0
39.868 0 -39.1827 0 255 0
13.7994 0 42.9528 0 255 0
-23.5924 0 -7.28022 0 255 0
-30.0687 0 49.1418 0 255 0
-27.1838 0 44.7056 0 255 0
-14.791 0 -49.4153 0 255 0
39.9929 0 41.3306 0 255 0
48.9433 0 -5.71439 0 255 0
-28.8018 0 -18.0595 0 255 0
-4.89621 0 -16.529 0 255 0
42.4211 0 -11.5365 0 255 0
-23.9296 0 -4.85356 0 255 0
49.0354 0 -47.2576 0 255 0
11.45 0 31.2593 0 255 0
29.8333 0 19.5694 0 255 0
26.6082 0 -49.7995 0 255 0
4.6709 0 -49.346 0 255 0
-26.5489 0 31.1073 0 255 0
-22.1659 0 34.2895 0 255 0
38.6681 0 20.2151 0 255 0
-32.4085 0 -17.1835 0 255 0
29.8378 0 48.608 0 255 0
9.41152 0 -11.9411 0 255 0
42.6911 0 -6.57578 0 255 0
-15.8425 0 28.0325 0 255 0
-49.9599 0 38.7225 0 255 0
13.3131 0 -12.2106 0 255 0
26.7259 0 4.7636 0 255 0
-13.5543 0 -19.5362 0 255 0
-2.66983 0 25.0381 0 255 0
25.0886 0 18.7168 0 255 0
6.07508 0 -0.09492 0 255 0
-8.76938 0 17.4019 0 255 0
-16.5405 0 17.959 0 255 0
-10.7319 0 -39.4324 0 255 0
47.2455 0 38.4729 0 255 0
-23.6674 0 -19.0773 0 255 0
-5.15681 0 -19.5244 0 255 0
-21.8769 0 40.7289 0 255 0
8.07175 0 -33.8845 0 255 0
7.45104 0 38.5866 0 255 0
-42.4057 0 12.246 0 255 0
-44.4963 0 17.4511 0 255 0
-1.97607 0 -42.3567 0 255 0
-25.5786 0 0.904295 0 255 0
-38.6624 0 -30.277 0 255 0
-20.0197 0 -1.86032 0 255 0
-37.885 0 -34.8483 0 255 0
-0.957759 0 42.051 0 255 0
25.8288 0 -6.23135 0 255 0
32.7719 0 -22.1852 0 255 0
-15.5616 0 -19.3758 0 255 0
2.77356 0 -9.60277 0 255 0
47.05 0 -46.7458 0 255 0
-37.0363 0 -44.9239 0 255 0
1.54122 0 -39.8944 0 255 0
-8.79096 0 -9.15669 0 255 0
21.2801 0 -24.3048 0 255 0
-0.515839 0 20.7573 0 255 0
-14.7087 0 -13.163 0 255 0
-21.1981 0 -15.3816 0 255 0
-15.8655 0 -29.8742 0 255 0
14.4218 0 -6.9476 0 255 0
6.61523 0 14.3251 0 255 0
-23.5121 0 48.5588 0 255 0
24.8582 0 23.4021 0 255 0
2.25899 0 -21.4694 0 255 0
-13.5514 0 5.07183 0 255 0
-20.0446 0 -38.566 0 255 0
1.71992 0 -40.0022 0 255 0
-12.3953 0 34.8049 0 255 0
20.6054 0 -12.4261 0 255 0
28.382 0 -38.7422 0 255 0
28.5436 0 -35.7443 0 255 0
-25.9188 0 -24.3679 0 255 0
2.89896 0 -16.8613 0 255 0
-14.5798 0 43.4325 0 255 0
-48.0951 0 11.9675 0 255 0
-4.88155 0 21.2606 0 255 0
-33.3186 0 -0.77337 0 255 0
-46.7371 0 -28.425 0 255 0
-29.9021 0 -5.29185 0 255 0
49.2296 0 6.4191 0 255 0
6.57792 0 -19.5685 0 255 0
36.1882 0 -5.24167 0 255 0
47.9697 0 41.6407 0 255 0
-41.3543 0 -45.8794 0 255 0
1.01846 0 24.8529 0 255 0
-33.483 0 -5.63483 0 255 0
43.675 0 20.952 0 255 0
-30.4385 0 4.13985 0 255 0
-38.7738 0 21.2427 0 255 0
36.5375 0 1.84119 0 255 0
21.1773 0 38.8143 0 255 0
-46.0889 0 -31.8468 0 255 0
-9.18393 0 14.0357 0 255 0
20.8617 0 -47.594 0 255 0
-38.2938 0 10.7576 0 255 0
-30.9175 0 46.029 0 255 0
-16.3711 0 -11.5695 0 255 0
15.5786 0 -19.0809 0 255 0
24.37 0 -41.5069 0 255 0
-43.1547 0 -32.3727 0 255 0
-35.7489 0 -18.5346 0 255 0
-40.2343 0 -49.7918 0 255 0
-6.42818 0 -41.8317 0 255 0
-7.72623 0 -37.5577 0 255 0
-10.7738 0 24.118 0 255 0
-33.1619 0 -38.7824 0 255 0
-7.62951 0 23.1768 0 255 0
-3.85011 0 -22.6939 0 255 0
4.37665 0 -43.9117 0 255 0
-45.6249 0 7.92166 0 255 0
-37.1295 0 -18.5028 0 255 0
-5.20325 0 -19.5912 0 255 0
-10.8449 0 -17.14 0 255 0
48.5302 0 -42.5099 0 255 0
30.1509 0 37.0258 0 255 0
-21.8689 0 -0.227845 0 255 0
-49.1611 0 19.1838 0 255 0
20.3017 0 -2.47586 0 255 0
-10.527 0 -28.2712 0 255 0
-13.8218 0 -12.3955 0 255 0
-4.79346 0 -29.8828 0 255 0
2.29995 0 -10.8651 0 255 0
40.0744 0 -4.3028 0 255 0
-32.3511 0 -17.9841 0 255 0
-46.8306 0 34.5072 0 255 0
-43.8268 0 -18.8028 0 255 0
-46.9175 0 -20.4108 0 255 0
-7.08165 0 15.0802 0 255 0
18.4681 0 -33.4361 0 255 0
-5.81717 0 -43.2674 0 255 0
43.296 0 44.3582 0 255 0
-18.0905 0 8.35203 0 255 0
-19.1835 0 37.9828 0 255 0
27.8135 0 27.3905 0 255 0
23.1613 0 -26.479 0 255 0
-9.08199 0 3.85318 0 255 0
4.70103 0 -4.53132 0 255 0
8.42172 0 6.48513 0 255 0
14.8585 0 40.5735 0 255 0
-35.168 0 1.45322 0 255 0
-23.4693 0 -29.9089 0 255 0
49.6055 0 47.9659 0 255 0
18.4498 0 -18.8666 0 255 0
41.9978 0 -42.853 0 255 0
45.5015 0 -27.748 0 255 0
28.1159 0 34.3436 0 255 0
19.4525 0 -41.847 0 255 0
-19.3745 0 19.4936 0 255 0
18.6081 0 27.5911 0 255 0
-49.7836 0 19.9287 0 255 0
-42.6809 0 -13.9963 0 255 0
33.1397 0 -10.2114 0 255 0
28.6864 0 47.4761 0 255 0
-25.8493 0 23.2485 0 255 0
16.1152 0 -14.683 0 255 0
-25.4331 0 -32.6213 0 255 0
-26.1038 0 -41.0818 0 255 0
-39.1046 0 35.7456 0 255 0
12.7053 0 -48.7606 0 255 0
12.5553 0 49.8706 0 255 0
21.7552 0 -24.1706 0 255 0
-21.5282 0 -44.9691 0 255 0
-3.22935 0 -30.1438 0 255 0
38.7344 0 -31.5423 0 255 0
30.6913 0 8.34979 0 255 0
24.1425 0 -3.03881 0 255 0
-28.3646 0 -26.982 0 255 0
23.4077 0 41.4674 0 255 0
-16.058 0 -46.6097 0 255 0
-38.2776 0 -11.6431 0 255 0
-1.23814 0 43.4417 0 255 0
36.1994 0 46.9723 0 255 0
-9.6672 0 -27.8684 0 255 0
-35.0015 0 -27.2266 0 255 0
44.6518 0 25.4136 0 255 0
11.5738 0 14.5652 0 255 0
39.8812 0 33.7223 0 255 0
4.1103 0 -35.7411 0 255 0
30.1021 0 -46.2477 0 255 0
17.6355 0 41.3289 0 255 0
8.11056 0 17.4558 0 255 0
30.5007 0 -49.5534 0 255 0
18.3034 0 -27.5213 0 255 0
-20.4567 0 -18.6571 0 255 0
-17.0733 0 29.8709 0 255 0
-46.7143 0 19.4933 0 255 0
-9.8863 0 -17.1029 0 255 0
44.0414 0 13.1142 0 255 0
-19.719 0 -9.05074 0 255 0
-30.7881 0 21.4376 0 255 0
6.3841 0 22.407 0 255 0
35.4085 0 -29.82 0 255 0
-4.17116 0 12.6592 0 255 0
2.48129 0 18.903 0 255 0
-26.3122 0 -43.465 0 255 0
36.4164 0 46.2902 0 255 0
30.1808 0 22.8157 0 255 0
34.1814 0 -9.60414 0 255 0
-3.20433 0 -39.0178 0 255 0
39.6476 0 -44.9813 0 255 0
-28.639 0 24.9952 0 255 0
25.5219 0 -26.2541 0 255 0
27.8734 0 0.412211 0 255 0
-9.74935 0 -17.3111 0 255 0
2.0219 0 0.0744555 0 255 0
-45.4738 0 9.59168 0 255 0
-19.4668 0 35.4954 0 255 0
25.2866 0 -39.4123 0 255 0
19.7803 0 -9.71503 0 255 0
-49.31 0 21.6072 0 255 0
1.02368 0 28.445 0 255 0
-21.8266 0 -3.45196 0 255 0
-44.9869 0 -45.173 0 255 0
-44.2884 0 31.655 0 255 0
29.5472 0 -31.9752 0 255 0
41.4438 0 16.0146 0 255 0
-42.2052 0 -14.4778 0 255 0
36.8982 0 -12.0665 0 255 0
-6.29728 0 16.7924 0 255 0
27.104 0 -36.042 0 255 0
32.3092 0 -40.8034 0 255 0
-21.5685 0 -27.8483 0 255 0
2.32919 0 -29.6898 0 255 0
4.43365 0 47.2822 0 255 0
16.9771 0 -10.237 0 255 0
-36.0384 0 7.47376 0 255 0
44.6638 0 -7.35062 0 255 0
44.8087 0 15.4483 0 255 0
17.8231 0 -28.8669 0 255 0
-13.3349 0 -19.4627 0 255 0
1.1839 0 14.6033 0 255 0
-24.3571 0 19.0288 0 255 0
6.40704 0 44.8499 0 255 0
37.1522 0 -15.6545 0 255 0
-45.6941 0 -0.186027 0 255 0
28.2107 0 -13.9887 0 255 0
-6.1783 0 -20.8045 0 255 0
-28.0684 0 -37.0945 0 255 0
41.4784 0 19.407 0 255 0
32.3589 0 -49.374 0 255 0
-36.912 0 24.6313 0 255 0
-15.6686 0 18.8903 0 255 0
29.2212 0 29.4094 0 255 0
13.3158 0 -25.1684 0 255 0
-48.8537 0 -6.41059 0 255 0
-21.9539 0 -48.9789 0 255 0
-36.8263 0 15.7033 0 255 0
32.0348 0 -36.7334 0 255 0
-42.0423 0 -30.8325 0 255 0
45.6411 0 35.9064 0 255 0
-38.6234 0 25.4397 0 255 0
-44.1933 0 23.7539 0 255 0
-21.7372 0 -10.178 0 255 0
-18.698 0 23.7199 0 255 0
-6.90786 0 -22.7846 0 255 0
-32.6701 0 -38.5168 0 255 0
-19.0257 0 -23.9121 0 255 0
20.2201 0 33.8796 0 255 0
12.3166 0 44.6553 0 255 0
7.80874 0 -33.3783 0 255 0
-37.5329 0 3.08306 0 255 0
-6.93213 0 -19.8439 0 255 0
48.7845 0 28.3205 0 255 0
3.16285 0 8.06169 0 255 0
20.4567 0 -19.3183 0 255 0
-37.0192 0 47.5222 0 255 0
-28.8733 0 -42.7011 0 255 0
20.1951 0 -11.7038 0 255 0
-16.7875 0 -28.6259 0 255 0
-11.8121 0 -22.783 0 255 0
13.8808 0 -29.542 0 255 0
3.36082 0 -13.5245 0 255 0
20.9559 0 -35.4162 0 255 0
-48.6448 0 27.7643 0 255 0
47.0765 0 -1.61174 0 255 0
27.2571 0 -4.12466 0 255 0
29.8063 0 -37.0609 0 255 0
-43.0743 0 -19.6612 0 255 0
-14.0421 0 -5.57855 0 255 0
45.5979 0 37.5408 0 255 0
-14.3687 0 -39.1142 0 255 0
20.9587 0 -18.4535 0 255 0
28.4713 0 37.0172 0 255 0
3.17767 0 11.1668 0 255 0
49.6406 0 10.7275 0 255 0
-19.8325 0 -5.76211 0 255 0
22.8916 0 49.5477 0 255 0
-5.32129 0 13.0953 0 255 0
-1.89375 0 -8.64145 0 255 0
-41.665 0 40.5859 0 255 0
35.1398 0 -4.23054 0 255 0
28.5462 0 29.7357 0 255 0
-44.684 0 -21.6999 0 255 0
-20.628 0 22.5691 0 255 0
34.6125 0 10.0881 0 255 0
-18.0182 0 -9.13533 0 255 0
6.38143 0 45.2683 0 255 0
-2.04301 0 -7.48221 0 255 0
-18.117 0 3.18597 0 255 0
13.179 0 -27.9505 0 255 0
13.8692 0 12.8259 0 255 0
42.9738 0 -14.4743 0 255 0
28.1891 0 -44.8736 0 255 0
-33.3242 0 -46.8299 0 255 0
24.5768 0 -14.7788 0 255 0
46.1248 0 -29.6309 0 255 0