ply
format ascii 1.0
element vertex 1000
property float x
property float y
property float z
property uchar red
property uchar green
property uchar blue
end_header
0 0.233847 27.576 255 0 0
0 24.3461 26.1235 255 0 0
0 0.0361658 0.366838 255 0 0
0 46.2923 29.221 255 0 0
0 -12.9746 -23.7393 255 0 0
0 -33.7289 -19.4238 255 0 0
0 -49.9487 -34.6551 255 0 0
0 0.126446 -10.9569 255 0 0
0 40.619 41.4704 255 0 0
0 -15.9917 -38.5387 255 0 0
0 15.4058 48.5047 255 0 0
0 -24.9658 -48.8034 255 0 0
0 38.9254 48.652 255 0 0
0 16.0344 -41.7751 255 0 0
0 22.824 -12.0408 255 0 0
0 -39.6501 31.0998 255 0 0
0 -14.3748 34.1604 255 0 0
0 -26.2877 -14.6083 255 0 0
0 -21.4581 33.7816 255 0 0
0 17.3765 49.2298 255 0 0
0 6.29009 -5.23636 255 0 0
0 -30.8943 46.716 255 0 0
0 -17.2844 -38.3897 255 0 0
0 -9.99038 -36.4174 255 0 0
0 -42.6287 -48.8134 255 0 0
0 -34.7622 -48.6721 255 0 0
0 3.41809 -20.9417 255 0 0
0 -10.7824 -26.1954 255 0 0
0 -38.4718 -6.27352 255 0 0
0 8.57003 -10.8913 255 0 0
0 10.2418 -9.64989 255 0 0
0 -21.6155 -45.7179 255 0 0
0 20.3123 -46.3775 255 0 0
0 45.128 -29.8226 255 0 0
0 5.20019 22.1882 255 0 0
0 47.937 19.5496 255 0 0
0 8.26058 -45.7777 255 0 0
0 5.70831 30.7717 255 0 0
0 -48.4497 43.7443 255 0 0
0 12.4766 -0.164671 255 0 0
0 25.679 16.7428 255 0 0
0 -42.0046 15.2389 255 0 0
0 -13.3131 16.9996 255 0 0
0 35.6626 -13.529 255 0 0
0 44.196 -41.914 255 0 0
0 46.0944 43.7691 255 0 0
0 15.6988 34.3796 255 0 0
0 -36.2368 32.8195 255 0 0
0 -5.69883 36.0864 255 0 0
0 -28.2025 -2.14627 255 0 0
0 24.0478 -11.9608 255 0 0
0 19.9111 -36.8395 255 0 0
0 -36.5287 28.1329 255 0 0
0 -31.3382 16.563 255 0 0
0 2.30261 -1.45704 255 0 0
0 19.3436 20.5415 255 0 0
0 -34.7231 -21.3837 255 0 0
0 -30.6517 42.1588 255 0 0
0 -42.0773 -4.55821 255 0 0
0 23.2019 -29.2824 255 0 0
0 -1.89194 -47.9296 255 0 0
0 22.9287 43.6886 255 0 0
0 9.14013 -24.6172 255 0 0
0 20.0368 -49.5407 255 0 0
0 -3.71694 -32.7808 255 0 0
0 -30.3813 -17.5072 255 0 0
0 -22.4474 35.5385 255 0 0
0 11.4851 -31.1547 255 0 0
0 -27.2697 -11.679 255 0 0
0 -35.2387 -5.64548 255 0 0
0 -14.2677 -46.3133 255 0 0
0 -37.0146 -9.85054 255 0 0
0 15.6907 23.034 255 0 0
0 -48.205 28.0777 255 0 0
0 -49.4672 -0.394349 255 0 0
0 -15.4122 -38.206 255 0 0
0 -44.2282 -43.6997 255 0 0
0 -12.0094 -43.4951 255 0 0
0 -7.89939 24.4721 255 0 0
0 -41.4268 -18.936 255 0 0
0 17.0496 34.9507 255 0 0
0 2.41534 -0.097852 255 0 0
0 -14.5634 -20.9322 255 0 0
0 15.2478 -25.1488 255 0 0
0 20.1191 -33.1147 255 0 0
0 -32.682 -14.4769 255 0 0
0 -25.3588 4.48467 255 0 0
0 42.1683 16.4015 255 0 0
0 37.9308 -29.7066 255 0 0
0 14.8984 -17.4105 255 0 0
0 -13.4585 20.1325 255 0 0
0 -47.8292 -16.0049 255 0 0
0 24.4824 49.5195 255 0 0
0 -15.5671 23.8661 255 0 0
0 39.8144 -42.1235 255 0 0
0 -16.5373 17.7172 255 0 0
0 -32.5303 13.2007 255 0 0
0 -30.0869 -8.95542 255 0 0
0 15.9515 -49.6117 255 0 0
0 -6.22669 -17.4946 255 0 0
0 24.4528 -4.91057 255 0 0
0 -10.782 -7.39819 255 0 0
0 -35.8068 -13.3144 255 0 0
0 -44.0881 -20.2069 255 0 0
0 -20.2066 -0.532901 255 0 0
0 44.1011 -9.72295 255 0 0
0 -6.58748 -3.9843 255 0 0
0 9.03457 34.8837 255 0 0
0 41.1656 -5.22211 255 0 0
0 -29.7291 2.39747 255 0 0
0 42.6275 -10.9883 255 0 0
0 -31.0454 2.1437 255 0 0
0 -29.3912 46.9121 255 0 0
0 8.95075 43.322 255 0 0
0 -5.87 23.6184 255 0 0
0 -12.8959 28.4698 255 0 0
0 0.50359 -4.19386 255 0 0
0 -5.4647 -29.8041 255 0 0
0 28.8036 -32.7401 255 0 0
0 -35.7431 8.77184 255 0 0
0 12.0786 3.04762 255 0 0
0 -44.17 -27.6892 255 0 0
0 12.2651 -7.04849 255 0 0
0 6.63351 24.4489 255 0 0
0 46.628 0.832911 255 0 0
0 -41.4682 12.3762 255 0 0
0 -25.8707 -43.7101 255 0 0
0 -41.1058 -11.9249 255 0 0
0 -39.6461 -3.67879 255 0 0
0 0.00220878 -11.3739 255 0 0
0 15.5072 -34.4603 255 0 0
0 46.2555 7.43364 255 0 0
0 33.6456 9.67514 255 0 0
0 -0.417092 -2.55978 255 0 0
0 23.7979 -19.3649 255 0 0
0 -42.4932 -11.5416 255 0 0
0 40.0476 -29.1859 255 0 0
0 33.736 36.4897 255 0 0
0 45.9729 10.099 255 0 0
0 -24.1551 18.4257 255 0 0
0 26.5001 -49.0001 255 0 0
0 21.1233 -48.2048 255 0 0
0 -43.191 47.0005 255 0 0
0 30.9058 -47.3332 255 0 0
0 -4.23757 16.4089 255 0 0
0 26.5031 16.5616 255 0 0
0 -15.8572 11.7923 255 0 0
0 -45.8421 7.87768 255 0 0
0 4.21402 17.4473 255 0 0
0 49.7368 -44.8458 255 0 0
0 -16.3094 35.5087 255 0 0
0 -8.92052 -0.634669 255 0 0
0 34.0384 -44.9143 255 0 0
0 -48.5065 -43.9429 255 0 0
0 41.5211 -43.3328 255 0 0
0 30.8694 24.4452 255 0 0
0 -40.6121 -27.9802 255 0 0
0 38.7228 42.6603 255 0 0
0 -18.4432 -32.9585 255 0 0
0 -9.52094 9.25183 255 0 0
0 10.3522 34.8444 255 0 0
0 5.50306 -27.6494 255 0 0
0 -40.767 22.815 255 0 0
0 -37.5456 37.8017 255 0 0
0 -47.0887 12.7885 255 0 0
0 28.5199 18.035 255 0 0
0 14.3933 -6.9821 255 0 0
0 49.7148 2.27522 255 0 0
0 29.6432 24.7731 255 0 0
0 17.3741 9.41311 255 0 0
0 -5.56889 -38.5892 255 0 0
0 -27.7101 -30.1239 255 0 0
0 7.00981 -15.2602 255 0 0
0 26.5053 -24.4872 255 0 0
0 0.460082 -45.3526 255 0 0
0 40.5142 -28.1072 255 0 0
0 -20.8117 -9.1873 255 0 0
0 -40.8758 -12.1748 255 0 0
0 45.3045 28.4077 255 0 0
0 -1.84294 44.6723 255 0 0
0 29.6857 -28.5321 255 0 0
0 46.1344 -27.9096 255 0 0
0 6.32855 -12.7802 255 0 0
0 23.3773 28.1087 255 0 0
0 11.1672 -41.9173 255 0 0
0 -16.1985 33.4819 255 0 0
0 -30.9096 2.12219 255 0 0
0 -33.0487 -39.5629 255 0 0
0 31.7914 -21.235 255 0 0
0 -39.2939 -36.0707 255 0 0
0 14.1112 43.8974 255 0 0
0 35.0629 4.2221 255 0 0
0 -28.903 -12.3843 255 0 0
0 -13.0354 26.4989 255 0 0
0 17.3648 44.7007 255 0 0
0 -5.41211 -12.0807 255 0 0
0 -16.3134 -12.6832 255 0 0
0 9.98157 49.3483 255 0 0
0 31.6183 -6.53984 255 0 0
0 15.9932 20.0116 255 0 0
0 32.6215 -20.0916 255 0 0
0 -23.497 11.6801 255 0 0
0 -4.27051 -16.6461 255 0 0
0 44.7356 27.6983 255 0 0
0 4.22851 -39.5831 255 0 0
0 -46.8933 11.092 255 0 0
0 6.10712 33.1281 255 0 0
0 2.85439 48.6137 255 0 0
0 38.2242 -7.38238 255 0 0
0 21.2405 44.4522 255 0 0
0 -3.46527 25.2034 255 0 0
0 38.6922 41.101 255 0 0
0 -10.1894 -17.4252 255 0 0
0 7.72648 -13.0178 255 0 0
0 -3.83111 0.0024166 255 0 0
0 -14.0239 10.4542 255 0 0
0 45.8357 -44.2162 255 0 0
0 -45.1238 1.08413 255 0 0
0 13.9318 -14.4069 255 0 0
0 -11.8732 22.6468 255 0 0
0 13.8119 40.7161 255 0 0
0 -17.6497 1.63424 255 0 0
0 19.8853 27.9244 255 0 0
0 -7.55154 20.5208 255 0 0
0 -8.65964 6.33682 255 0 0
0 -38.6285 45.3586 255 0 0
0 -13.284 -36.7319 255 0 0
0 13.0185 45.7225 255 0 0
0 -46.1676 13.9481 255 0 0
0 -13.097 39.1428 255 0 0
0 -36.8716 22.9069 255 0 0
0 44.4408 29.1249 255 0 0
0 28.1433 -32.6434 255 0 0
0 47.9111 -14.7638 255 0 0
0 33.0277 40.6726 255 0 0
0 -11.2327 -37.8942 255 0 0
0 18.2783 -36.5591 255 0 0
0 -30.5871 9.01244 255 0 0
0 6.69102 38.9041 255 0 0
0 40.1547 24.6934 255 0 0
0 9.9902 -16.6017 255 0 0
0 27.6399 1.05021 255 0 0
0 1.59985 -32.8868 255 0 0
0 -31.0503 36.9842 255 0 0
0 31.4385 -21.6076 255 0 0
0 18.4454 26.691 255 0 0
0 -45.2514 -14.657 255 0 0
0 -41.6561 -9.41382 255 0 0
0 -3.14837 -35.7691 255 0 0
0 -26.0521 43.7953 255 0 0
0 -8.82767 34.9467 255 0 0
0 -1.13812 -11.3402 255 0 0
0 -42.7066 12.1757 255 0 0
0 -29.0173 10.0103 255 0 0
0 -2.02258 25.7633 255 0 0
0 -14.4529 11.9193 255 0 0
0 33.1367 31.5936 255 0 0
0 -16.9291 13.4768 255 0 0
0 -5.81786 11.8245 255 0 0
0 25.8823 -11.6962 255 0 0
0 -16.702 -35.3427 255 0 0
0 -38.2799 -16.9504 255 0 0
0 16.344 38.6351 255 0 0
0 5.33042 -41.839 255 0 0
0 33.3732 37.1982 255 0 0
0 20.7285 -10.5181 255 0 0
0 -31.1182 44.8152 255 0 0
0 -10.2578 -30.6155 255 0 0
0 22.7289 17.3192 255 0 0
0 32.3499 46.4866 255 0 0
0 -48.1964 20.217 255 0 0
0 29.5469 -26.7924 255 0 0
0 -47.267 -31.3823 255 0 0
0 17.489 29.1142 255 0 0
0 4.68037 2.4378 255 0 0
0 -48.4641 1.7475 255 0 0
0 -7.29305 -32.0472 255 0 0
0 -38.4896 -12.7529 255 0 0
0 -21.2997 -40.7534 255 0 0
0 29.4189 -10.2954 255 0 0
0 -40.3421 -24.9838 255 0 0
0 -14.2269 24.7795 255 0 0
0 -8.79421 -14.9058 255 0 0
0 1.85705 36.6445 255 0 0
0 22.5988 -28.1598 255 0 0
0 2.83743 -0.097924 255 0 0
0 36.5406 25.8924 255 0 0
0 42.2615 -45.5205 255 0 0
0 23.1281 13.1726 255 0 0
0 19.0126 40.9032 255 0 0
0 -16.2682 -36.0095 255 0 0
0 -1.57036 -22.1242 255 0 0
0 22.0489 9.02998 255 0 0
0 40.7135 -29.4473 255 0 0
0 43.7812 42.2977 255 0 0
0 35.4686 -33.8973 255 0 0
0 23.9531 5.37183 255 0 0
0 39.9268 -40.3266 255 0 0
0 26.9699 -47.2276 255 0 0
0 -44.6255 -40.9467 255 0 0
0 0.0420744 43.8993 255 0 0
0 20.2213 36.6486 255 0 0
0 -2.2417 14.0094 255 0 0
0 -15.2086 -44.2849 255 0 0
0 -43.1056 45.3203 255 0 0
0 41.2257 41.9584 255 0 0
0 -29.8304 -17.3495 255 0 0
0 -34.4549 -41.443 255 0 0
0 17.672 11.4798 255 0 0
0 40.6593 16.9297 255 0 0
0 11.7166 34.4687 255 0 0
0 22.2177 47.5879 255 0 0
0 6.16627 -18.6379 255 0 0
0 -44.6035 41.5244 255 0 0
0 45.5391 25.4836 255 0 0
0 -43.7047 25.0463 255 0 0
0 -8.17767 -44.2557 255 0 0
0 -0.140265 29.1205 255 0 0
0 -29.2363 -49.8603 255 0 0
0 -17.1552 47.3601 255 0 0
0 -22.852 -14.7484 255 0 0
0 -7.21015 -48.8508 255 0 0
0 -7.40397 -22.566 255 0 0
0 -8.94397 27.3536 255 0 0
0 9.63986 -44.8909 255 0 0
0 6.87623 36.9183 255 0 0
0 8.26507 -49.8753 255 0 0
0 17.7433 -46.2048 255 0 0
0 -28.7986 -8.9701 255 0 0
0 -33.5842 -5.57152 255 0 0
0 -27.2899 20.2531 255 0 0
0 -11.942 -41.9546 255 0 0
0 -38.5712 -13.8944 255 0 0
0 24.9856 17.2522 255 0 0
0 38.7458 -43.7586 255 0 0
0 -38.4215 26.7479 255 0 0
0 2.27698 -38.3103 255 0 0
0 42.3663 14.3974 255 0 0
0 -26.4084 -24.0817 255 0 0
0 -34.4594 -21.4108 255 0 0
0 39.0098 17.2192 255 0 0
0 18.1845 -49.0024 255 0 0
0 6.46614 -2.8998 255 0 0
0 -27.4188 32.5359 255 0 0
0 -6.96632 -3.37877 255 0 0
0 21.2992 33.9771 255 0 0
0 31.2645 -41.7417 255 0 0
0 8.92301 -9.9462 255 0 0
0 46.3608 -19.5724 255 0 0
0 7.78013 -5.29728 255 0 0
0 1.20384 17.6368 255 0 0
0 -46.9624 -36.9305 255 0 0
0 9.45095 -18.2426 255 0 0
0 -1.2182 -30.0668 255 0 0
0 36.17 -4.71147 255 0 0
0 27.1327 49.8498 255 0 0
0 -16.5819 48.5077 255 0 0
0 39.867 -36.7718 255 0 0
0 -21.8718 -44.3463 255 0 0
0 46.8783 1.14282 255 0 0
0 -31.4 21.1298 255 0 0
0 -41.1591 -48.9462 255 0 0
0 37.443 -47.8965 255 0 0
0 22.9852 17.9809 255 0 0
0 48.4672 -17.6176 255 0 0
0 -7.58552 -4.56454 255 0 0
0 16.7374 36.4798 255 0 0
0 -3.96271 -44.2265 255 0 0
0 0.75787 38.7836 255 0 0
0 -1.64146 20.5455 255 0 0
0 7.07489 11.241 255 0 0
0 35.863 -13.4386 255 0 0
0 -23.6186 -18.4616 255 0 0
0 -11.7925 -2.28223 255 0 0
0 1.96892 -4.52388 255 0 0
0 -16.2865 -8.47714 255 0 0
0 -5.84318 15.9062 255 0 0
0 35.4631 3.10431 255 0 0
0 37.4706 49.8753 255 0 0
0 24.1658 6.73535 255 0 0
0 31.2202 1.26131 255 0 0
0 37.5592 -34.7417 255 0 0
0 -12.7774 -34.7344 255 0 0
0 -42.536 33.4082 255 0 0
0 48.6262 -37.1441 255 0 0
0 -14.1792 -16.1751 255 0 0
0 30.8746 -44.5605 255 0 0
0 -37.3192 -6.3198 255 0 0
0 28.0324 0.642821 255 0 0
0 -44.8853 -18.147 255 0 0
0 -25.2849 -47.1982 255 0 0
0 -49.3766 18.2183 255 0 0
0 -21.4028 8.13874 255 0 0
0 -21.2405 31.1637 255 0 0
0 43.3128 -12.5048 255 0 0
0 -6.22993 -44.8964 255 0 0
0 -45.8181 27.1465 255 0 0
0 35.1482 0.233157 255 0 0
0 12.1469 -37.1061 255 0 0
0 6.37962 33.5957 255 0 0
0 14.191 42.557 255 0 0
0 2.64906 -18.1471 255 0 0
0 30.233 40.0756 255 0 0
0 -3.29556 3.00435 255 0 0
0 9.40375 -36.3029 255 0 0
0 33.4816 -49.4746 255 0 0
0 19.0719 -47.2679 255 0 0
0 12.7731 28.6777 255 0 0
0 22.2839 -48.808 255 0 0
0 -0.589574 -14.9787 255 0 0
0 14.1732 -27.4829 255 0 0
0 37.1035 -3.46107 255 0 0
0 -30.7656 -21.8983 255 0 0
0 10.8443 9.84145 255 0 0
0 20.7747 49.1862 255 0 0
0 -34.8499 34.5787 255 0 0
0 -26.5409 -28.0398 255 0 0
0 37.9485 -17.997 255 0 0
0 11.6883 -12.381 255 0 0
0 10.4562 -31.4676 255 0 0
0 -13.5696 -9.08137 255 0 0
0 -17.2183 -15.479 255 0 0
0 -8.17124 -41.6325 255 0 0
0 -12.4933 -35.0368 255 0 0
0 31.9361 26.3791 255 0 0
0 -17.3488 5.49255 255 0 0
0 1.66803 1.0523 255 0 0
0 17.5112 25.6933 255 0 0
0 -14.1935 27.3169 255 0 0
0 38.8849 20.0581 255 0 0
0 45.6669 -36.2243 255 0 0
0 -14.3438 43.9345 255 0 0
0 17.9772 -39.1475 255 0 0
0 38.5023 -17.8183 255 0 0
0 19.0006 -49.2524 255 0 0
0 -19.0436 -4.65351 255 0 0
0 20.4014 2.39854 255 0 0
0 11.7036 -28.5168 255 0 0
0 -34.1373 -48.8865 255 0 0
0 -8.36967 28.8554 255 0 0
0 33.881 32.0239 255 0 0
0 -9.35596 11.605 255 0 0
0 12.17 20.2094 255 0 0
0 -45.6966 23.7702 255 0 0
0 -24.0039 2.47501 255 0 0
0 23.189 45.054 255 0 0
0 -32.6544 -0.094614 255 0 0
0 25.5229 23.8152 255 0 0
0 1.22129 35.8653 255 0 0
0 -38.5439 -7.78004 255 0 0
0 -11.3109 26.6076 255 0 0
0 9.36774 38.7728 255 0 0
0 -3.03546 -42.1269 255 0 0
0 6.03582 -46.4589 255 0 0
0 34.5303 -39.8029 255 0 0
0 -35.7373 26.5879 255 0 0
0 -18.0278 22.1791 255 0 0
0 -24.3173 36.6671 255 0 0
0 -43.3999 -45.8203 255 0 0
0 32.0115 0.116662 255 0 0
0 40.6115 42.0903 255 0 0
0 48.8176 -10.3526 255 0 0
0 23.0277 9.92401 255 0 0
0 28.6142 25.0859 255 0 0
0 -40.4078 -16.1688 255 0 0
0 -6.29221 44.2453 255 0 0
0 -16.7425 49.0608 255 0 0
0 -19.9118 42.5412 255 0 0
0 26.7486 39.9127 255 0 0
0 -11.3184 22.7449 255 0 0
0 -47.9188 15.2424 255 0 0
0 26.7014 33.2513 255 0 0
0 -0.00141319 -38.5977 255 0 0
0 43.0511 -42.8034 255 0 0
0 0.714689 -20.8496 255 0 0
0 9.22032 0.885036 255 0 0
0 -14.4608 19.4082 255 0 0
0 11.5061 25.1238 255 0 0
0 36.3635 31.0405 255 0 0
0 27.5751 -29.8676 255 0 0
0 4.94376 48.0092 255 0 0
0 -25.4847 -1.94281 255 0 0
0 -1.4038 45.7894 255 0 0
0 -25.8556 -14.3348 255 0 0
0 -7.86426 -43.4003 255 0 0
0 -36.4055 -33.3847 255 0 0
0 4.59944 2.53871 255 0 0
0 14.3099 36.429 255 0 0
0 24.4802 -32.8896 255 0 0
0 45.5398 -23.2646 255 0 0
0 19.7021 -46.9495 255 0 0
0 -48.3016 -45.7949 255 0 0
0 44.7311 38.1898 255 0 0
0 40.6669 20.8957 255 0 0
0 -8.52683 6.97309 255 0 0
0 1.57171 9.57488 255 0 0
0 37.7228 18.0013 255 0 0
0 19.1223 1.79149 255 0 0
0 -37.6773 -21.0045 255 0 0
0 -39.3244 -6.0421 255 0 0
0 -31.1745 8.38276 255 0 0
0 29.0427 43.2088 255 0 0
0 1.15075 7.72083 255 0 0
0 -45.5084 16.0872 255 0 0
0 31.2814 -13.6726 255 0 0
0 16.3618 -24.3049 255 0 0
0 -42.7629 -3.40469 255 0 0
0 -3.68313 -48.1454 255 0 0
0 -23.9608 48.9387 255 0 0
0 19.4751 29.1503 255 0 0
0 -40.5091 -49.1729 255 0 0
0 48.2906 42.9207 255 0 0
0 -45.0025 27.5625 255 0 0
0 -27.3222 -35.399 255 0 0
0 4.29782 -26.977 255 0 0
0 -43.1505 -28.0374 255 0 0
0 46.4713 -32.1758 255 0 0
0 29.3428 -26.529 255 0 0
0 -9.30639 26.9112 255 0 0
0 2.9803 -49.1631 255 0 0
0 33.136 31.0987 255 0 0
0 11.4064 -39.7484 255 0 0
0 36.9427 40.917 255 0 0
0 -0.310523 12.1768 255 0 0
0 -29.5858 -24.2574 255 0 0
0 2.85329 -36.1875 255 0 0
0 14.169 -46.1172 255 0 0
0 6.63166 1.04596 255 0 0
0 -7.18092 35.7999 255 0 0
0 -45.3725 40.3557 255 0 0
0 23.6575 -26.1037 255 0 0
0 -27.6035 19.3475 255 0 0
0 36.5129 -9.4423 255 0 0
0 29.7253 7.14317 255 0 0
0 -31.3002 7.80821 255 0 0
0 34.0597 30.5962 255 0 0
0 48.357 -20.7235 255 0 0
0 -23.7446 -11.4913 255 0 0
0 23.1128 -47.7375 255 0 0
0 -26.0301 42.4077 255 0 0
0 14.982 43.2419 255 0 0
0 -49.706 33.1414 255 0 0
0 -48.9153 0.136277 255 0 0
0 27.9388 -13.5927 255 0 0
0 35.2478 0.797167 255 0 0
0 31.0677 -25.8852 255 0 0
0 -11.1173 -31.4904 255 0 0
0 25.6711 39.2968 255 0 0
0 8.60693 -37.5492 255 0 0
0 -12.0015 -14.8416 255 0 0
0 10.7837 -46.752 255 0 0
0 45.9808 -46.7205 255 0 0
0 13.7351 -35.6313 255 0 0
0 28.2572 -28.9341 255 0 0
0 30.5374 20.804 255 0 0
0 -4.20802 -30.0994 255 0 0
0 -21.0589 40.0954 255 0 0
0 37.8795 -6.01888 255 0 0
0 24.4019 34.0458 255 0 0
0 -30.9453 6.69953 255 0 0
0 -0.448247 14.3396 255 0 0
0 20.1817 3.85746 255 0 0
0 -14.8294 34.1326 255 0 0
0 -4.55909 37.5881 255 0 0
0 -45.819 -7.57948 255 0 0
0 -7.19139 -43.5124 255 0 0
0 -5.66033 -40.6672 255 0 0
0 39.895 -25.2452 255 0 0
0 -33.8427 -42.5086 255 0 0
0 -22.7965 6.00214 255 0 0
0 -6.72371 18.7877 255 0 0
0 24.9652 -3.5154 255 0 0
0 49.9487 -13.9689 255 0 0
0 31.4979 -20.3955 255 0 0
0 -43.483 -26.9117 255 0 0
0 -27.8948 14.9836 255 0 0
0 -21.5785 42.6361 255 0 0
0 35.6517 -16.8687 255 0 0
0 14.323 8.93649 255 0 0
0 -28.1016 6.18894 255 0 0
0 24.3749 35.7488 255 0 0
0 14.9771 6.11044 255 0 0
0 31.2782 -44.0804 255 0 0
0 19.8071 0.28082 255 0 0
0 -19.1637 9.93202 255 0 0
0 -29.0404 42.669 255 0 0
0 46.7786 -27.2053 255 0 0
0 -37.8631 21.8719 255 0 0
0 -14.989 37.4549 255 0 0
0 35.7736 -32.1849 255 0 0
0 -21.3305 27.6102 255 0 0
0 27.8476 16.8556 255 0 0
0 -7.90952 -37.6415 255 0 0
0 -11.1679 -2.87539 255 0 0
0 41.1245 -34.298 255 0 0
0 28.377 -20.5969 255 0 0
0 -3.63119 37.2827 255 0 0
0 -25.8411 -9.10606 255 0 0
0 -13.6648 -5.6443 255 0 0
0 5.80637 13.6637 255 0 0
0 48.9451 -3.69876 255 0 0
0 18.1176 49.8674 255 0 0
0 -19.8312 42.3743 255 0 0
0 29.177 -38.4298 255 0 0
0 -2.46343 49.5822 255 0 0
0 -6.41643 -33.4959 255 0 0
0 -4.9261 37.6302 255 0 0
0 -25.479 -11.5105 255 0 0
0 -29.3105 48.0998 255 0 0
0 -9.11494 -42.4059 255 0 0
0 -25.4115 -26.8431 255 0 0
0 -36.132 -26.7601 255 0 0
0 38.2369 23.4268 255 0 0
0 -9.71077 25.4671 255 0 0
0 2.80099 -12.8541 255 0 0
0 -37.8498 6.40095 255 0 0
0 -9.28472 17.4307 255 0 0
0 -9.42257 19.7686 255 0 0
0 -8.68943 18.495 255 0 0
0 -31.1985 -31.3378 255 0 0
0 1.81664 -36.3812 255 0 0
0 27.3158 -46.5351 255 0 0
0 48.3236 13.2474 255 0 0
0 -25.4529 30.7423 255 0 0
0 -28.1456 22.0463 255 0 0
0 -5.87508 19.4166 255 0 0
0 -6.08329 -31.8653 255 0 0
0 -30.5866 16.7049 255 0 0
0 -46.8383 7.0517 255 0 0
0 45.1972 -4.47887 255 0 0
0 18.0791 20.0707 255 0 0
0 6.46854 14.0158 255 0 0
0 8.7358 0.784283 255 0 0
0 -35.3773 -32.9253 255 0 0
0 -5.26018 32.2045 255 0 0
0 -18.1896 15.4646 255 0 0
0 46.7096 -0.31849 255 0 0
0 -10.0365 -45.9746 255 0 0
0 -28.6855 -21.95 255 0 0
0 -35.5947 31.0792 255 0 0
0 -48.3464 11.6878 255 0 0
0 -48.3868 -10.4432 255 0 0
0 11.3658 11.2592 255 0 0
0 4.94284 -31.3553 255 0 0
0 -37.6799 32.4377 255 0 0
0 45.2611 24.8679 255 0 0
0 37.0003 12.9204 255 0 0
0 -23.6754 -23.4537 255 0 0
0 -42.6137 19.5038 255 0 0
0 -23.1245 -48.3178 255 0 0
0 -48.4918 -41.3042 255 0 0
0 46.1656 -28.1641 255 0 0
0 0.46927 10.8982 255 0 0
0 8.37729 -37.8589 255 0 0
0 9.32738 24.9126 255 0 0
0 -9.2557 -21.461 255 0 0
0 1.39943 32.0973 255 0 0
0 -44.0754 18.5416 255 0 0
0 -25.2257 40.8787 255 0 0
0 36.6661 45.3762 255 0 0
0 2.92684 -24.0099 255 0 0
0 -27.579 22.3817 255 0 0
0 19.9534 33.3504 255 0 0
0 2.47974 0.398613 255 0 0
0 -35.9657 46.5431 255 0 0
0 -38.7689 32.1727 255 0 0
0 18.4729 -8.32624 255 0 0
0 40.243 11.4975 255 0 0
0 -0.280701 -10.5638 255 0 0
0 12.8378 -49.5262 255 0 0
0 17.6187 -1.09215 255 0 0
0 17.7608 3.69916 255 0 0
0 1.56314 4.43821 255 0 0
0 -30.0268 -9.54144 255 0 0
0 3.40464 49.6655 255 0 0
0 -25.1184 -28.6496 255 0 0
0 -21.845 18.0021 255 0 0
0 48.7056 -47.3062 255 0 0
0 -33.7934 1.29775 255 0 0
0 6.40588 20.7811 255 0 0
0 5.63431 -28.3688 255 0 0
0 7.18554 25.6898 255 0 0
0 47.1307 43.584 255 0 0
0 -46.5046 -44.7738 255 0 0
0 22.0714 -49.721 255 0 0
0 -14.3306 44.6422 255 0 0
0 -10.3335 -27.1479 255 0 0
0 -41.6167 -46.4208 255 0 0
0 -17.5802 -26.8913 255 0 0
0 45.4191 5.59411 255 0 0
0 3.56611 -28.4645 255 0 0
0 -1.57114 -13.6883 255 0 0
0 -46.2471 42.9133 255 0 0
0 2.8803 -7.39441 255 0 0
0 -38.3502 16.7266 255 0 0
0 22.7947 -32.2083 255 0 0
0 29.7841 17.6923 255 0 0
0 -6.42016 -9.49349 255 0 0
0 -14.2514 7.93143 255 0 0
0 -7.44103 32.2606 255 0 0
0 43.5962 -21.87 255 0 0
0 -4.72158 -26.356 255 0 0
0 -49.9432 28.8126 255 0 0
0 -42.0025 48.4049 255 0 0
0 17.3223 38.9094 255 0 0
0 -41.5887 18.8503 255 0 0
0 -5.36121 -45.4596 255 0 0
0 25.8523 0.621294 255 0 0
0 -5.29343 44.9043 255 0 0
0 10.4903 15.8057 255 0 0
0 32.7369 18.754 255 0 0
0 44.4995 -2.09895 255 0 0
0 -0.690879 -18.6346 255 0 0
0 27.5931 38.7804 255 0 0
0 3.31104 35.3955 255 0 0
0 14.1913 -26.0301 255 0 0
0 -1.85606 -39.8066 255 0 0
0 11.7918 21.4849 255 0 0
0 -10.8017 46.7003 255 0 0
0 18.5082 16.7101 255 0 0
0 39.7773 20.0885 255 0 0
0 -38.0874 -21.2924 255 0 0
0 44.2334 -25.2938 255 0 0
0 20.5027 -10.1399 255 0 0
0 -14.6884 -40.472 255 0 0
0 -26.9261 45.3712 255 0 0
0 46.2477 -37.364 255 0 0
0 -10.1991 -34.7999 255 0 0
0 -16.5381 -15.0975 255 0 0
0 -48.4926 1.24095 255 0 0
0 32.2385 44.6091 255 0 0
0 39.2534 -3.44066 255 0 0
0 15.493 32.158 255 0 0
0 -31.2537 37.7611 255 0 0
0 34.9 -7.4325 255 0 0
0 36.0358 -48.9987 255 0 0
0 34.9225 32.7561 255 0 0
0 21.9086 -34.2703 255 0 0
0 -25.0272 5.26326 255 0 0
0 36.4718 -45.6755 255 0 0
0 47.5468 -36.4726 255 0 0
0 37.7127 3.75759 255 0 0
0 -15.7033 47.8019 255 0 0
0 37.2981 27.8124 255 0 0
0 7.17155 4.38279 255 0 0
0 -37.4327 33.79 255 0 0
0 41.9419 41.8606 255 0 0
0 -23.411 -34.2097 255 0 0
0 -26.9391 -39.6644 255 0 0
0 -18.5175 -26.518 255 0 0
0 24.3357 5.38543 255 0 0
0 41.1165 2.88922 255 0 0
0 -32.4853 -18.2557 255 0 0
0 34.4763 -25.1044 255 0 0
0 -36.5944 45.5127 255 0 0
0 31.0466 -31.754 255 0 0
0 -38.0906 48.3342 255 0 0
0 -11.498 15.6165 255 0 0
0 -19.5346 -17.6815 255 0 0
0 35.1273 31.8426 255 0 0
0 -32.1044 -45.0171 255 0 0
0 6.65476 -9.28425 255 0 0
0 25.8639 1.03366 255 0 0
0 33.2313 -45.0766 255 0 0
0 -30.1242 -3.70048 255 0 0
0 -1.01222 26.3654 255 0 0
0 -20.0838 -15.1821 255 0 0
0 -15.7712 43.7992 255 0 0
0 -11.5805 -26.8014 255 0 0
0 -21.1915 45.1212 255 0 0
0 48.3154 3.48453 255 0 0
0 27.7101 8.20777 255 0 0
0 6.08631 -1.08445 255 0 0
0 -5.38148 12.242 255 0 0
0 -12.1562 -28.4106 255 0 0
0 -27.4934 -38.4827 255 0 0
0 47.3743 -19.0555 255 0 0
0 -47.8501 -30.2507 255 0 0
0 -5.83726 -7.58155 255 0 0
0 23.0311 -42.5885 255 0 0
0 46.2585 34.9416 255 0 0
0 -26.7645 15.5803 255 0 0
0 -23.9009 11.4125 255 0 0
0 -22.7586 -47.3223 255 0 0
0 36.8244 -38.3837 255 0 0
0 -8.82214 -3.8973 255 0 0
0 40.6138 45.0199 255 0 0
0 -34.3507 -33.7685 255 0 0
0 27.2921 19.5098 255 0 0
0 -5.79636 -43.6489 255 0 0
0 -35.8821 42.7467 255 0 0
0 34.3411 11.9921 255 0 0
0 13.1943 -15.9521 255 0 0
0 44.0797 43.1074 255 0 0
0 30.9627 0.0043665 255 0 0
0 -25.8437 16.1517 255 0 0
0 -6.36343 -33.9872 255 0 0
0 -5.5607 -46.7411 255 0 0
0 -22.2697 -0.787395 255 0 0
0 22.7419 11.148 255 0 0
0 37.1902 -42.5496 255 0 0
0 -8.77938 -43.4949 255 0 0
0 15.2614 -20.2241 255 0 0
0 40.6068 35.6959 255 0 0
0 8.96819 -11.0472 255 0 0
0 -5.81512 -27.7536 255 0 0
0 44.3137 -2.57245 255 0 0
0 -1.50269 -48.0579 255 0 0
0 -28.7552 29.5484 255 0 0
0 43.0717 40.1515 255 0 0
0 -48.1544 9.54143 255 0 0
0 -26.9862 -45.0243 255 0 0
0 37.6459 -14.227 255 0 0
0 -24.3141 -40.761 255 0 0
0 49.6927 18.1712 255 0 0
0 31.2045 30.9885 255 0 0
0 5.43196 -18.898 255 0 0
0 -12.1569 -29.5842 255 0 0
0 37.6645 17.4907 255 0 0
0 -2.34474 6.56719 255 0 0
0 20.3874 -5.00706 255 0 0
0 17.8293 7.03592 255 0 0
0 -12.5976 -7.0696 255 0 0
0 -45.9945 9.45367 255 0 0
0 -14.1434 16.4661 255 0 0
0 1.39655 -3.12761 255 0 0
0 -17.6702 -36.1442 255 0 0
0 -8.35482 -44.0781 255 0 0
0 -2.14748 -13.4649 255 0 0
0 38.8925 22.7542 255 0 0
0 -25.4486 -10.0171 255 0 0
0 27.6382 -11.0945 255 0 0
0 14.2659 5.85861 255 0 0
0 14.3036 48.749 255 0 0
0 -7.23064 33.3189 255 0 0
0 48.4361 -17.9542 255 0 0
0 10.5791 16.2614 255 0 0
0 -13.1553 -11.0988 255 0 0
0 -31.821 -4.0601 255 0 0
0 -30.6597 -3.50545 255 0 0
0 -0.203342 -35.1263 255 0 0
0 -28.721 11.6597 255 0 0
0 -5.26513 27.6712 255 0 0
0 -19.4721 16.5629 255 0 0
0 0.131616 -7.43382 255 0 0
0 -29.3712 11.0039 255 0 0
0 22.6191 37.0928 255 0 0
0 -48.7903 13.0196 255 0 0
0 -4.80917 26.4676 255 0 0
0 8.3412 -7.89086 255 0 0
0 31.5663 6.52107 255 0 0
0 -18.7619 17.4865 255 0 0
0 -26.1561 43.8349 255 0 0
0 -31.2918 -13.2909 255 0 0
0 38.575 35.9847 255 0 0
0 14.3844 -13.0543 255 0 0
0 -13.9628 -44.0098 255 0 0
0 5.39647 -32.1164 255 0 0
0 48.504 -6.23754 255 0 0
0 46.6136 30.6675 255 0 0
0 8.46522 34.909 255 0 0
0 -8.07693 9.29342 255 0 0
0 10.75 40.5315 255 0 0
0 -15.2537 -23.4453 255 0 0
0 1.36155 43.1795 255 0 0
0 -12.726 3.15836 255 0 0
0 -24.3876 -27.0314 255 0 0
0 -6.57105 22.2482 255 0 0
0 -34.5591 -0.634883 255 0 0
0 -28.6526 -19.4599 255 0 0
0 -28.877 25.0385 255 0 0
0 10.9512 -3.50599 255 0 0
0 -34.2721 45.0265 255 0 0
0 26.6903 -1.88295 255 0 0
0 -21.2749 -34.6471 255 0 0
0 -26.0593 -16.3702 255 0 0
0 14.1153 36.5714 255 0 0
0 28.8869 8.15807 255 0 0
0 -11.2689 18.4346 255 0 0
0 -33.0934 7.82236 255 0 0
0 6.90265 45.7004 255 0 0
0 -16.2827 -18.3185 255 0 0
0 -26.2291 7.88075 255 0 0
0 -20.0766 0.0479836 255 0 0
0 24.1584 -1.94148 255 0 0
0 43.7424 -12.5523 255 0 0
0 -26.0766 26.5814 255 0 0
0 43.607 27.2217 255 0 0
0 -11.2502 23.0096 255 0 0
0 -23.161 -47.3979 255 0 0
0 29.0308 -16.0533 255 0 0
0 34.6713 -16.4409 255 0 0
0 -0.787832 -49.0452 255 0 0
0 9.9558 -33.7764 255 0 0
0 31.8438 -46.7581 255 0 0
0 12.9118 -39.9602 255 0 0
0 45.6305 -46.8253 255 0 0
0 -29.7445 -40.5103 255 0 0
0 14.4643 19.0199 255 0 0
0 -2.17246 -31.9587 255 0 0
0 -12.8339 33.0404 255 0 0
0 -7.72621 28.3517 255 0 0
0 14.0241 6.32471 255 0 0
0 -33.8048 -32.5479 255 0 0
0 29.8408 -26.3147 255 0 0
0 48.7557 46.7604 255 0 0
0 -18.6206 17.3692 255 0 0
0 45.5324 -27.7184 255 0 0
0 -25.2791 -25.9757 255 0 0
0 36.5426 16.0371 255 0 0
0 8.99584 -46.9527 255 0 0
0 24.7128 20.6632 255 0 0
0 -38.3276 33.839 255 0 0
0 -18.0026 46.8041 255 0 0
0 49.4338 3.96595 255 0 0
0 -45.8652 -10.793 255 0 0
0 -32.5855 36.8605 255 0 0
0 -46.343 -44.3126 255 0 0
0 12.7136 -41.9508 255 0 0
0 -46.9016 2.35504 255 0 0
0 -22.47 -46.37 255 0 0
0 6.55758 4.40847 255 0 0
0 -28.1038 2.82453 255 0 0
0 -23.022 -28.376 255 0 0
0 -13.8659 31.1454 255 0 0
0 -37.7916 0.276596 255 0 0
0 -22.0542 14.8801 255 0 0
0 19.9498 6.7523 255 0 0
0 -41.4583 -36.1241 255 0 0
0 -0.250189 10.9278 255 0 0
0 41.677 -2.11346 255 0 0
0 -47.0138 -3.37066 255 0 0
0 11.9491 17.041 255 0 0
0 35.9413 22.701 255 0 0
0 -39.203 -8.30492 255 0 0
0 3.41613 -11.0333 255 0 0
0 -42.8571 -5.78206 255 0 0
0 -28.8332 -2.96238 255 0 0
0 -33.3912 20.2984 255 0 0
0 26.8688 21.0167 255 0 0
0 20.1442 12.3812 255 0 0
0 20.9393 23.4985 255 0 0
0 46.6753 3.96586 255 0 0
0 14.883 43.401 255 0 0
0 -11.337 -35.2617 255 0 0
0 32.218 26.7788 255 0 0
0 -4.90663 1.1711 255 0 0
0 35.016 21.0658 255 0 0
0 45.9511 -28.4468 255 0 0
0 -3.79736 -48.4109 255 0 0
0 -2.88909 -2.62889 255 0 0
0 16.9759 43.8346 255 0 0
0 21.9863 -13.6404 255 0 0
0 3.29192 38.5059 255 0 0
0 44.2897 -49.3656 255 0 0
0 -40.3794 -1.95175 255 0 0
0 46.9126 28.656 255 0 0
0 -18.0698 -32.3576 255 0 0
0 49.7621 -15.4095 255 0 0
0 40.7839 4.10247 255 0 0
0 -31.3685 -35.7906 255 0 0
0 31.1418 33.9843 255 0 0
0 -15.7646 7.35846 255 0 0
0 -18.6359 25.5813 255 0 0
0 11.1809 42.9718 255 0 0
0 44.7262 -9.62747 255 0 0
0 49.0346 -7.26527 255 0 0
0 -19.0293 5.19854 255 0 0
0 46.8391 46.1579 255 0 0
0 -9.38947 5.2981 255 0 0
0 46.3957 40.6551 255 0 0
0 -38.5484 -6.81059 255 0 0
0 34.0642 44.4823 255 0 0
0 -16.5648 28.1473 255 0 0
0 18.6697 -9.2396 255 0 0
0 16.2195 35.0929 255 0 0
0 -15.5222 12.1167 255 0 0
0 2.69439 4.06906 255 0 0
0 -9.50967 -18.117 255 0 0
0 8.1839 45.8148 255 0 0
0 -13.0829 -41.6022 255 0 0
0 11.1723 46.6283 255 0 0
0 17.0519 -15.3604 255 0 0
0 7.26895 17.0822 255 0 0
0 36.8987 22.1084 255 0 0
0 -31.8005 17.7837 255 0 0
0 -35.7923 39.7341 255 0 0
0 -2.7836 17.506 255 0 0
0 -24.9619 38.0177 255 0 0
0 -15.8396 -5.41149 255 0 0
0 22.6758 32.8599 255 0 0
0 -41.7603 -29.1286 255 0 0
0 35.1093 12.6472 255 0 0
0 -30.4249 -20.2463 255 0 0
0 -4.12057 46.2186 255 0 0
0 34.5539 46.4388 255 0 0
0 40.5965 21.4895 255 0 0
0 -38.185 40.2761 255 0 0
0 18.8795 -15.5766 255 0 0
0 41.8606 -6.89699 255 0 0